# This file uses centimeters as units for non-parametric coordinates.

mtllib cart-tracks.mtl
g default
v 31.823999 2.641100 132.991302
v 31.823999 2.641100 -134.354202
v 31.595699 2.641100 -134.354202
v 31.595699 2.641100 132.991302
v 37.699402 15.869300 132.991302
v 31.595699 15.869300 132.991302
v 31.595699 15.869300 -134.354202
v 37.699402 15.869300 -134.354202
v 37.699402 2.641100 132.991302
v 31.823999 9.432200 132.991302
v 31.595699 9.432200 132.991302
v 31.595699 9.432200 -134.354202
v 37.699402 2.641100 -134.354202
v 31.823999 9.432200 -134.354202
v 25.720400 9.432200 132.991302
v 25.720400 9.432200 -134.354202
v 25.720400 2.641100 132.991302
v 25.720400 2.641100 -134.354202
vt 0.000000 0.000000
vt 0.000000 1.000000
vt 0.037400 1.000000
vt 0.037400 0.000000
vt 1.000000 1.000000
vt 1.000000 0.000000
vt 0.962600 0.513400
vt 0.962600 0.000000
vt 1.000000 0.513400
vt 0.000000 0.513400
vt 0.037400 0.513400
vt 0.962600 1.000000
vt 0.000000 1.000000
vt 0.000000 0.000000
vt 0.000000 0.000000
vt 0.000000 1.000000
vt 0.000000 1.000000
vt 1.000000 1.000000
vt 0.000000 1.000000
vt 1.000000 0.513400
vt 1.000000 1.000000
vt 1.000000 0.000000
vt 0.037400 0.000000
vt 0.000000 0.513400
vt 0.000000 1.000000
vt 1.000000 1.000000
vt 0.000000 1.000000
vt 1.000000 1.000000
vt 1.000000 0.000000
vt 0.000000 0.000000
vt 1.000000 1.000000
vt 1.000000 0.000000
vt 1.000000 0.000000
vt 0.000000 0.513400
vt 0.037400 0.000000
vt 0.000000 0.000000
vt 0.037400 1.000000
vt 1.000000 1.000000
vt 1.000000 0.000000
vt 0.037400 0.000000
vt 0.000000 1.000000
vt 1.000000 1.000000
vt 1.000000 0.000000
vt 0.000000 0.000000
vt 0.000000 0.000000
vt 0.000000 1.000000
vt 0.962600 0.000000
vt 0.000000 0.000000
vt 0.000000 1.000000
vt 0.962600 1.000000
vt 0.962600 0.000000
vt 0.037400 1.000000
vt 1.000000 1.000000
vt 1.000000 0.000000
vt 0.037400 0.000000
vn 0.000000 -1.000000 0.000000
vn 0.000000 -1.000000 0.000000
vn 0.000000 -1.000000 0.000000
vn 0.000000 -1.000000 0.000000
vn 0.000000 1.000000 0.000000
vn 0.000000 1.000000 0.000000
vn 0.000000 1.000000 0.000000
vn 0.000000 1.000000 0.000000
vn 0.000000 0.000000 1.000000
vn 0.000000 0.000000 1.000000
vn 0.000000 0.000000 1.000000
vn 0.000000 0.000000 1.000000
vn 0.000000 0.000000 1.000000
vn 0.000000 0.000000 1.000000
vn 0.000000 0.000000 1.000000
vn 0.000000 0.000000 1.000000
vn -1.000000 0.000000 -0.000000
vn -1.000000 0.000000 -0.000000
vn -1.000000 0.000000 -0.000000
vn -1.000000 0.000000 -0.000000
vn 0.000000 0.000000 -1.000000
vn 0.000000 0.000000 -1.000000
vn -0.000000 0.000000 -1.000000
vn 0.000000 0.000000 -1.000000
vn 0.000000 0.000000 -1.000000
vn 0.000000 0.000000 -1.000000
vn 0.000000 0.000000 -1.000000
vn 0.000000 0.000000 -1.000000
vn 1.000000 0.000000 0.000000
vn 1.000000 0.000000 0.000000
vn 1.000000 0.000000 0.000000
vn 1.000000 0.000000 0.000000
vn 0.000000 -1.000000 0.000000
vn 0.000000 -1.000000 0.000000
vn 0.000000 -1.000000 0.000000
vn 0.000000 -1.000000 0.000000
vn 0.000000 0.000000 1.000000
vn 0.000000 0.000000 1.000000
vn 0.000000 0.000000 1.000000
vn 0.000000 0.000000 1.000000
vn 0.000000 0.000000 -1.000000
vn 0.000000 0.000000 -1.000000
vn 0.000000 0.000000 -1.000000
vn 0.000000 0.000000 -1.000000
vn 0.000000 1.000000 0.000000
vn 0.000000 1.000000 0.000000
vn 0.000000 1.000000 0.000000
vn 0.000000 1.000000 0.000000
vn -1.000000 0.000000 -0.000000
vn -1.000000 0.000000 -0.000000
vn -1.000000 0.000000 -0.000000
vn -1.000000 0.000000 -0.000000
vn 0.000000 -1.000000 0.000000
vn 0.000000 -1.000000 0.000000
vn 0.000000 -1.000000 0.000000
vn 0.000000 -1.000000 0.000000
vn -0.000000 0.000000 -1.000000
vn -0.000000 0.000000 -1.000000
vn -0.000000 0.000000 -1.000000
vn -0.000000 0.000000 -1.000000
vn 0.000000 0.000000 1.000000
vn 0.000000 0.000000 1.000000
vn 0.000000 0.000000 1.000000
vn 0.000000 0.000000 1.000000
s off
g cart_tracks:Box007
usemtl blinn3SG
f 4/1/1 3/2/2 2/3/3 1/4/4
f 8/13/5 7/5/6 6/6/7 5/14/8
f 10/7/9 1/8/10 9/15/11 5/16/12
f 11/9/13 10/7/14 5/17/15 6/18/16
f 6/19/17 7/5/18 12/20/19 11/10/20
f 14/11/21 8/21/22 13/22/23 2/23/24
f 12/24/25 7/25/26 8/26/27 14/11/28
f 8/27/29 5/28/30 9/29/31 13/30/32
f 2/3/33 13/31/34 9/32/35 1/4/36
f 10/7/37 11/9/38 4/33/39 1/8/40
f 12/34/41 14/11/42 2/35/43 3/36/44
f 12/37/45 16/38/46 15/39/47 11/40/48
f 15/41/49 16/42/50 18/43/51 17/44/52
f 17/45/53 18/46/54 3/12/55 4/47/56
f 18/48/57 16/49/58 12/50/59 3/51/60
f 11/52/61 15/53/62 17/54/63 4/55/64
g default
v -41.619900 2.641100 132.991302
v -41.619900 2.641100 -134.354202
v -41.391602 2.641100 -134.354202
v -41.391602 2.641100 132.991302
v -47.495201 15.869300 132.991302
v -41.391602 15.869300 132.991302
v -41.391602 15.869300 -134.354202
v -47.495201 15.869300 -134.354202
v -47.495201 2.641100 132.991302
v -41.619900 9.432200 132.991302
v -41.391602 9.432200 132.991302
v -41.391602 9.432200 -134.354202
v -47.495201 2.641100 -134.354202
v -41.619900 9.432200 -134.354202
v -35.516201 9.432200 132.991302
v -35.516201 9.432200 -134.354202
v -35.516201 2.641100 132.991302
v -35.516201 2.641100 -134.354202
vt 0.037400 0.000000
vt 0.037400 1.000000
vt 0.000000 1.000000
vt 0.000000 0.000000
vt 1.000000 0.000000
vt 1.000000 1.000000
vt 0.962600 0.000000
vt 0.962600 0.513400
vt 1.000000 0.513400
vt 0.000000 0.513400
vt 0.037400 0.513400
vt 0.962600 1.000000
vt 0.000000 0.000000
vt 0.000000 1.000000
vt 0.000000 1.000000
vt 0.000000 0.000000
vt 1.000000 1.000000
vt 0.000000 1.000000
vt 1.000000 0.513400
vt 0.000000 1.000000
vt 0.037400 0.000000
vt 1.000000 0.000000
vt 1.000000 1.000000
vt 1.000000 1.000000
vt 0.000000 1.000000
vt 0.000000 0.513400
vt 0.000000 0.000000
vt 1.000000 0.000000
vt 1.000000 1.000000
vt 0.000000 1.000000
vt 1.000000 0.000000
vt 1.000000 1.000000
vt 1.000000 0.000000
vt 0.000000 0.000000
vt 0.037400 0.000000
vt 0.000000 0.513400
vt 0.037400 0.000000
vt 1.000000 0.000000
vt 1.000000 1.000000
vt 0.037400 1.000000
vt 0.000000 0.000000
vt 1.000000 0.000000
vt 1.000000 1.000000
vt 0.000000 1.000000
vt 0.962600 0.000000
vt 0.000000 1.000000
vt 0.000000 0.000000
vt 0.962600 0.000000
vt 0.962600 1.000000
vt 0.000000 1.000000
vt 0.000000 0.000000
vt 0.037400 0.000000
vt 1.000000 0.000000
vt 1.000000 1.000000
vt 0.037400 1.000000
vn 0.000000 -1.000000 0.000000
vn 0.000000 -1.000000 0.000000
vn 0.000000 -1.000000 0.000000
vn 0.000000 -1.000000 0.000000
vn 0.000000 1.000000 0.000000
vn 0.000000 1.000000 0.000000
vn 0.000000 1.000000 0.000000
vn 0.000000 1.000000 0.000000
vn 0.000000 0.000000 1.000000
vn 0.000000 0.000000 1.000000
vn 0.000000 0.000000 1.000000
vn 0.000000 -0.000000 1.000000
vn 0.000000 -0.000000 1.000000
vn 0.000000 0.000000 1.000000
vn 0.000000 -0.000000 1.000000
vn 0.000000 -0.000000 1.000000
vn 1.000000 0.000000 0.000000
vn 1.000000 0.000000 0.000000
vn 1.000000 0.000000 0.000000
vn 1.000000 0.000000 0.000000
vn 0.000000 0.000000 -1.000000
vn 0.000000 0.000000 -1.000000
vn 0.000000 0.000000 -1.000000
vn 0.000000 0.000000 -1.000000
vn 0.000000 0.000000 -1.000000
vn 0.000000 0.000000 -1.000000
vn 0.000000 0.000000 -1.000000
vn 0.000000 0.000000 -1.000000
vn -1.000000 0.000000 -0.000000
vn -1.000000 0.000000 -0.000000
vn -1.000000 0.000000 -0.000000
vn -1.000000 0.000000 -0.000000
vn 0.000000 -1.000000 0.000000
vn 0.000000 -1.000000 0.000000
vn 0.000000 -1.000000 0.000000
vn 0.000000 -1.000000 0.000000
vn 0.000000 0.000000 1.000000
vn 0.000000 0.000000 1.000000
vn 0.000000 -0.000000 1.000000
vn 0.000000 -0.000000 1.000000
vn 0.000000 0.000000 -1.000000
vn 0.000000 0.000000 -1.000000
vn 0.000000 0.000000 -1.000000
vn 0.000000 0.000000 -1.000000
vn 0.000000 1.000000 0.000000
vn -0.000000 1.000000 -0.000000
vn 0.000000 1.000000 0.000000
vn 0.000000 1.000000 0.000000
vn 1.000000 0.000000 0.000000
vn 1.000000 0.000000 0.000000
vn 1.000000 0.000000 0.000000
vn 1.000000 0.000000 0.000000
vn 0.000000 -1.000000 0.000000
vn 0.000000 -1.000000 0.000000
vn 0.000000 -1.000000 0.000000
vn 0.000000 -1.000000 0.000000
vn 0.000000 0.000000 -1.000000
vn 0.000000 0.000000 -1.000000
vn 0.000000 0.000000 -1.000000
vn 0.000000 0.000000 -1.000000
vn 0.000000 0.000000 1.000000
vn 0.000000 0.000000 1.000000
vn 0.000000 0.000000 1.000000
vn 0.000000 0.000000 1.000000
s off
g cart_tracks:Box006
usemtl blinn3SG
f 19/56/65 20/57/66 21/58/67 22/59/68
f 23/68/69 24/60/70 25/61/71 26/69/72
f 23/70/73 27/71/74 19/62/75 28/63/76
f 24/72/77 23/73/78 28/63/79 29/64/80
f 29/65/81 30/74/82 25/61/83 24/75/84
f 20/76/85 31/77/86 26/78/87 32/66/88
f 32/66/89 26/79/90 25/80/91 30/81/92
f 31/82/93 27/83/94 23/84/95 26/85/96
f 19/56/97 27/86/98 31/87/99 20/57/100
f 19/62/101 22/88/102 29/64/103 28/63/104
f 21/89/105 20/90/106 32/66/107 30/91/108
f 29/92/109 33/93/110 34/94/111 30/95/112
f 35/96/113 36/97/114 34/98/115 33/99/116
f 22/100/117 21/67/118 36/101/119 35/102/120
f 21/103/121 30/104/122 34/105/123 36/106/124
f 22/107/125 35/108/126 33/109/127 29/110/128
g default
v -57.549198 0.000000 144.509201
v -57.549198 0.000000 119.857597
v 45.680801 0.000000 119.857597
v 45.680801 0.000000 144.509201
v -57.549198 3.449100 144.509201
v 45.680801 3.449100 144.509201
v 45.680801 3.449100 119.857597
v -57.549198 3.449100 119.857597
vt 1.000000 0.000000
vt 1.000000 1.000000
vt 0.000000 1.000000
vt 0.000000 0.000000
vt 0.000000 0.000000
vt 1.000000 0.000000
vt 1.000000 1.000000
vt 0.000000 1.000000
vt 0.000000 0.000000
vt 1.000000 0.000000
vt 1.000000 1.000000
vt 0.000000 1.000000
vt 1.000000 0.000000
vt 1.000000 1.000000
vt 0.000000 1.000000
vt 0.000000 0.000000
vt 1.000000 0.000000
vt 1.000000 1.000000
vt 0.000000 1.000000
vt 0.000000 0.000000
vt 1.000000 1.000000
vt 0.000000 1.000000
vn 0.000000 -1.000000 0.000000
vn 0.000000 -1.000000 0.000000
vn 0.000000 -1.000000 0.000000
vn 0.000000 -1.000000 0.000000
vn 0.000000 1.000000 0.000000
vn 0.000000 1.000000 0.000000
vn 0.000000 1.000000 0.000000
vn 0.000000 1.000000 0.000000
vn 0.000000 0.000000 1.000000
vn 0.000000 0.000000 1.000000
vn 0.000000 0.000000 1.000000
vn 0.000000 0.000000 1.000000
vn 1.000000 0.000000 0.000000
vn 1.000000 0.000000 0.000000
vn 1.000000 0.000000 0.000000
vn 1.000000 0.000000 0.000000
vn 0.000000 0.000000 -1.000000
vn 0.000000 0.000000 -1.000000
vn 0.000000 0.000000 -1.000000
vn 0.000000 0.000000 -1.000000
vn -1.000000 0.000000 -0.000000
vn -1.000000 0.000000 -0.000000
vn -1.000000 0.000000 -0.000000
vn -1.000000 0.000000 -0.000000
s off
g cart_tracks:Box008
usemtl lambert4SG
f 37/111/129 38/112/130 39/113/131 40/114/132
f 41/115/133 42/116/134 43/117/135 44/118/136
f 37/119/137 40/120/138 42/121/139 41/122/140
f 40/114/141 39/123/142 43/124/143 42/125/144
f 39/126/145 38/127/146 44/128/147 43/129/148
f 38/130/149 37/111/150 41/131/151 44/132/152
g default
v -57.549198 0.000000 99.509598
v -57.549198 0.000000 74.858002
v 45.680801 0.000000 74.858002
v 45.680801 0.000000 99.509598
v -57.549198 3.449100 99.509598
v 45.680801 3.449100 99.509598
v 45.680801 3.449100 74.858002
v -57.549198 3.449100 74.858002
vt 1.000000 0.000000
vt 1.000000 1.000000
vt 0.000000 1.000000
vt 0.000000 0.000000
vt 0.000000 0.000000
vt 1.000000 0.000000
vt 1.000000 1.000000
vt 0.000000 1.000000
vt 0.000000 0.000000
vt 1.000000 0.000000
vt 1.000000 1.000000
vt 0.000000 1.000000
vt 1.000000 0.000000
vt 1.000000 1.000000
vt 0.000000 1.000000
vt 0.000000 0.000000
vt 1.000000 0.000000
vt 1.000000 1.000000
vt 0.000000 1.000000
vt 0.000000 0.000000
vt 1.000000 1.000000
vt 0.000000 1.000000
vn 0.000000 -1.000000 0.000000
vn 0.000000 -1.000000 0.000000
vn 0.000000 -1.000000 0.000000
vn 0.000000 -1.000000 0.000000
vn 0.000000 1.000000 0.000000
vn 0.000000 1.000000 0.000000
vn 0.000000 1.000000 0.000000
vn 0.000000 1.000000 0.000000
vn 0.000000 0.000000 1.000000
vn 0.000000 0.000000 1.000000
vn 0.000000 0.000000 1.000000
vn 0.000000 0.000000 1.000000
vn 1.000000 0.000000 0.000000
vn 1.000000 0.000000 0.000000
vn 1.000000 0.000000 0.000000
vn 1.000000 0.000000 0.000000
vn 0.000000 0.000000 -1.000000
vn 0.000000 0.000000 -1.000000
vn 0.000000 0.000000 -1.000000
vn 0.000000 0.000000 -1.000000
vn -1.000000 0.000000 -0.000000
vn -1.000000 0.000000 -0.000000
vn -1.000000 0.000000 -0.000000
vn -1.000000 0.000000 -0.000000
s off
g cart_tracks:Box005
usemtl lambert4SG
f 45/133/153 46/134/154 47/135/155 48/136/156
f 49/137/157 50/138/158 51/139/159 52/140/160
f 45/141/161 48/142/162 50/143/163 49/144/164
f 48/136/165 47/145/166 51/146/167 50/147/168
f 47/148/169 46/149/170 52/150/171 51/151/172
f 46/152/173 45/133/174 49/153/175 52/154/176
g default
v -57.549198 0.000000 56.965500
v -57.549198 0.000000 32.313900
v 45.680801 0.000000 32.313900
v 45.680801 0.000000 56.965500
v -57.549198 3.449100 56.965500
v 45.680801 3.449100 56.965500
v 45.680801 3.449100 32.313900
v -57.549198 3.449100 32.313900
vt 1.000000 0.000000
vt 1.000000 1.000000
vt 0.000000 1.000000
vt 0.000000 0.000000
vt 0.000000 0.000000
vt 1.000000 0.000000
vt 1.000000 1.000000
vt 0.000000 1.000000
vt 0.000000 0.000000
vt 1.000000 0.000000
vt 1.000000 1.000000
vt 0.000000 1.000000
vt 1.000000 0.000000
vt 1.000000 1.000000
vt 0.000000 1.000000
vt 0.000000 0.000000
vt 1.000000 0.000000
vt 1.000000 1.000000
vt 0.000000 1.000000
vt 0.000000 0.000000
vt 1.000000 1.000000
vt 0.000000 1.000000
vn 0.000000 -1.000000 0.000000
vn 0.000000 -1.000000 0.000000
vn 0.000000 -1.000000 0.000000
vn 0.000000 -1.000000 0.000000
vn 0.000000 1.000000 0.000000
vn 0.000000 1.000000 0.000000
vn 0.000000 1.000000 0.000000
vn 0.000000 1.000000 0.000000
vn 0.000000 0.000000 1.000000
vn 0.000000 0.000000 1.000000
vn 0.000000 0.000000 1.000000
vn 0.000000 0.000000 1.000000
vn 1.000000 0.000000 0.000000
vn 1.000000 0.000000 0.000000
vn 1.000000 0.000000 0.000000
vn 1.000000 0.000000 0.000000
vn 0.000000 0.000000 -1.000000
vn 0.000000 0.000000 -1.000000
vn 0.000000 0.000000 -1.000000
vn 0.000000 0.000000 -1.000000
vn -1.000000 0.000000 -0.000000
vn -1.000000 0.000000 -0.000000
vn -1.000000 0.000000 -0.000000
vn -1.000000 0.000000 -0.000000
s off
g cart_tracks:Box001
usemtl lambert4SG
f 53/155/177 54/156/178 55/157/179 56/158/180
f 57/159/181 58/160/182 59/161/183 60/162/184
f 53/163/185 56/164/186 58/165/187 57/166/188
f 56/158/189 55/167/190 59/168/191 58/169/192
f 55/170/193 54/171/194 60/172/195 59/173/196
f 54/174/197 53/155/198 57/175/199 60/176/200
g default
v -57.549198 0.000000 13.177500
v -57.549198 0.000000 -11.474100
v 45.680801 0.000000 -11.474100
v 45.680801 0.000000 13.177500
v -57.549198 3.449100 13.177500
v 45.680801 3.449100 13.177500
v 45.680801 3.449100 -11.474100
v -57.549198 3.449100 -11.474100
vt 1.000000 0.000000
vt 1.000000 1.000000
vt 0.000000 1.000000
vt 0.000000 0.000000
vt 0.000000 0.000000
vt 1.000000 0.000000
vt 1.000000 1.000000
vt 0.000000 1.000000
vt 0.000000 0.000000
vt 1.000000 0.000000
vt 1.000000 1.000000
vt 0.000000 1.000000
vt 1.000000 0.000000
vt 1.000000 1.000000
vt 0.000000 1.000000
vt 0.000000 0.000000
vt 1.000000 0.000000
vt 1.000000 1.000000
vt 0.000000 1.000000
vt 0.000000 0.000000
vt 1.000000 1.000000
vt 0.000000 1.000000
vn 0.000000 -1.000000 0.000000
vn 0.000000 -1.000000 0.000000
vn 0.000000 -1.000000 0.000000
vn 0.000000 -1.000000 0.000000
vn 0.000000 1.000000 0.000000
vn 0.000000 1.000000 0.000000
vn 0.000000 1.000000 0.000000
vn 0.000000 1.000000 0.000000
vn 0.000000 0.000000 1.000000
vn 0.000000 0.000000 1.000000
vn 0.000000 0.000000 1.000000
vn 0.000000 0.000000 1.000000
vn 1.000000 0.000000 0.000000
vn 1.000000 0.000000 0.000000
vn 1.000000 0.000000 0.000000
vn 1.000000 0.000000 0.000000
vn 0.000000 0.000000 -1.000000
vn 0.000000 0.000000 -1.000000
vn 0.000000 0.000000 -1.000000
vn 0.000000 0.000000 -1.000000
vn -1.000000 0.000000 -0.000000
vn -1.000000 0.000000 -0.000000
vn -1.000000 0.000000 -0.000000
vn -1.000000 0.000000 -0.000000
s off
g cart_tracks:Box002
usemtl lambert4SG
f 61/177/201 62/178/202 63/179/203 64/180/204
f 65/181/205 66/182/206 67/183/207 68/184/208
f 61/185/209 64/186/210 66/187/211 65/188/212
f 64/180/213 63/189/214 67/190/215 66/191/216
f 63/192/217 62/193/218 68/194/219 67/195/220
f 62/196/221 61/177/222 65/197/223 68/198/224
g default
v -57.549198 0.000000 -32.461601
v -57.549198 0.000000 -57.113201
v 45.680801 0.000000 -57.113201
v 45.680801 0.000000 -32.461601
v -57.549198 3.449100 -32.461601
v 45.680801 3.449100 -32.461601
v 45.680801 3.449100 -57.113201
v -57.549198 3.449100 -57.113201
vt 1.000000 0.000000
vt 1.000000 1.000000
vt 0.000000 1.000000
vt 0.000000 0.000000
vt 0.000000 0.000000
vt 1.000000 0.000000
vt 1.000000 1.000000
vt 0.000000 1.000000
vt 0.000000 0.000000
vt 1.000000 0.000000
vt 1.000000 1.000000
vt 0.000000 1.000000
vt 1.000000 0.000000
vt 1.000000 1.000000
vt 0.000000 1.000000
vt 0.000000 0.000000
vt 1.000000 0.000000
vt 1.000000 1.000000
vt 0.000000 1.000000
vt 0.000000 0.000000
vt 1.000000 1.000000
vt 0.000000 1.000000
vn 0.000000 -1.000000 0.000000
vn 0.000000 -1.000000 0.000000
vn 0.000000 -1.000000 0.000000
vn 0.000000 -1.000000 0.000000
vn 0.000000 1.000000 0.000000
vn 0.000000 1.000000 0.000000
vn 0.000000 1.000000 0.000000
vn 0.000000 1.000000 0.000000
vn 0.000000 0.000000 1.000000
vn 0.000000 0.000000 1.000000
vn 0.000000 0.000000 1.000000
vn 0.000000 0.000000 1.000000
vn 1.000000 0.000000 0.000000
vn 1.000000 0.000000 0.000000
vn 1.000000 0.000000 0.000000
vn 1.000000 0.000000 0.000000
vn 0.000000 0.000000 -1.000000
vn 0.000000 0.000000 -1.000000
vn 0.000000 0.000000 -1.000000
vn 0.000000 0.000000 -1.000000
vn -1.000000 0.000000 -0.000000
vn -1.000000 0.000000 -0.000000
vn -1.000000 0.000000 -0.000000
vn -1.000000 0.000000 -0.000000
s off
g cart_tracks:Box003
usemtl lambert4SG
f 69/199/225 70/200/226 71/201/227 72/202/228
f 73/203/229 74/204/230 75/205/231 76/206/232
f 69/207/233 72/208/234 74/209/235 73/210/236
f 72/202/237 71/211/238 75/212/239 74/213/240
f 71/214/241 70/215/242 76/216/243 75/217/244
f 70/218/245 69/199/246 73/219/247 76/220/248
g default
v -57.549198 0.000000 -80.546204
v -57.549198 0.000000 -105.197800
v 45.680801 0.000000 -105.197800
v 45.680801 0.000000 -80.546204
v -57.549198 3.449100 -80.546204
v 45.680801 3.449100 -80.546204
v 45.680801 3.449100 -105.197800
v -57.549198 3.449100 -105.197800
vt 1.000000 0.000000
vt 1.000000 1.000000
vt 0.000000 1.000000
vt 0.000000 0.000000
vt 0.000000 0.000000
vt 1.000000 0.000000
vt 1.000000 1.000000
vt 0.000000 1.000000
vt 0.000000 0.000000
vt 1.000000 0.000000
vt 1.000000 1.000000
vt 0.000000 1.000000
vt 1.000000 0.000000
vt 1.000000 1.000000
vt 0.000000 1.000000
vt 0.000000 0.000000
vt 1.000000 0.000000
vt 1.000000 1.000000
vt 0.000000 1.000000
vt 0.000000 0.000000
vt 1.000000 1.000000
vt 0.000000 1.000000
vn 0.000000 -1.000000 0.000000
vn 0.000000 -1.000000 0.000000
vn 0.000000 -1.000000 0.000000
vn 0.000000 -1.000000 0.000000
vn 0.000000 1.000000 0.000000
vn 0.000000 1.000000 0.000000
vn 0.000000 1.000000 0.000000
vn 0.000000 1.000000 0.000000
vn 0.000000 0.000000 1.000000
vn 0.000000 0.000000 1.000000
vn 0.000000 0.000000 1.000000
vn 0.000000 0.000000 1.000000
vn 1.000000 0.000000 0.000000
vn 1.000000 0.000000 0.000000
vn 1.000000 0.000000 0.000000
vn 1.000000 0.000000 0.000000
vn 0.000000 0.000000 -1.000000
vn 0.000000 0.000000 -1.000000
vn 0.000000 0.000000 -1.000000
vn 0.000000 0.000000 -1.000000
vn -1.000000 0.000000 -0.000000
vn -1.000000 0.000000 -0.000000
vn -1.000000 0.000000 -0.000000
vn -1.000000 0.000000 -0.000000
s off
g cart_tracks:Box004
usemtl lambert4SG
f 77/221/249 78/222/250 79/223/251 80/224/252
f 81/225/253 82/226/254 83/227/255 84/228/256
f 77/229/257 80/230/258 82/231/259 81/232/260
f 80/224/261 79/233/262 83/234/263 82/235/264
f 79/236/265 78/237/266 84/238/267 83/239/268
f 78/240/269 77/221/270 81/241/271 84/242/272
