# 3ds Max Wavefront OBJ Exporter v0.97b - (c)2007 guruware
# File Created: 08.11.2017 12:20:55

mtllib Cart Tracks.mtl

#
# object Box001
#

v  -57.5492 0.0000 56.9655
v  -57.5492 0.0000 32.3139
v  45.6808 0.0000 32.3139
v  45.6808 0.0000 56.9655
v  -57.5492 3.4491 56.9655
v  45.6808 3.4491 56.9655
v  45.6808 3.4491 32.3139
v  -57.5492 3.4491 32.3139
# 8 vertices

vn 0.0000 -1.0000 -0.0000
vn 0.0000 1.0000 -0.0000
vn 0.0000 0.0000 1.0000
vn 1.0000 0.0000 -0.0000
vn 0.0000 0.0000 -1.0000
vn -1.0000 0.0000 -0.0000
# 6 vertex normals

vt 1.0000 0.0000 0.0000
vt 1.0000 1.0000 0.0000
vt 0.0000 1.0000 0.0000
vt 0.0000 0.0000 0.0000
# 4 texture coords

g Box001
usemtl 04___Default
s 2
f 1/1/1 2/2/1 3/3/1 4/4/1 
s 4
f 5/4/2 6/1/2 7/2/2 8/3/2 
s 8
f 1/4/3 4/1/3 6/2/3 5/3/3 
s 16
f 4/4/4 3/1/4 7/2/4 6/3/4 
s 32
f 3/4/5 2/1/5 8/2/5 7/3/5 
s 64
f 2/4/6 1/1/6 5/2/6 8/3/6 
# 6 polygons

#
# object Box002
#

v  -57.5492 0.0000 13.1775
v  -57.5492 0.0000 -11.4741
v  45.6808 0.0000 -11.4741
v  45.6808 0.0000 13.1775
v  -57.5492 3.4491 13.1775
v  45.6808 3.4491 13.1775
v  45.6808 3.4491 -11.4741
v  -57.5492 3.4491 -11.4741
# 8 vertices

vn 0.0000 -1.0000 -0.0000
vn 0.0000 1.0000 -0.0000
vn 0.0000 0.0000 1.0000
vn 1.0000 0.0000 -0.0000
vn 0.0000 0.0000 -1.0000
vn -1.0000 0.0000 -0.0000
# 6 vertex normals

vt 1.0000 0.0000 0.0000
vt 1.0000 1.0000 0.0000
vt 0.0000 1.0000 0.0000
vt 0.0000 0.0000 0.0000
# 4 texture coords

g Box002
usemtl 04___Default
s 2
f 9/5/7 10/6/7 11/7/7 12/8/7 
s 4
f 13/8/8 14/5/8 15/6/8 16/7/8 
s 8
f 9/8/9 12/5/9 14/6/9 13/7/9 
s 16
f 12/8/10 11/5/10 15/6/10 14/7/10 
s 32
f 11/8/11 10/5/11 16/6/11 15/7/11 
s 64
f 10/8/12 9/5/12 13/6/12 16/7/12 
# 6 polygons

#
# object Box003
#

v  -57.5492 0.0000 -32.4616
v  -57.5492 0.0000 -57.1132
v  45.6808 0.0000 -57.1132
v  45.6808 0.0000 -32.4616
v  -57.5492 3.4491 -32.4616
v  45.6808 3.4491 -32.4616
v  45.6808 3.4491 -57.1132
v  -57.5492 3.4491 -57.1132
# 8 vertices

vn 0.0000 -1.0000 -0.0000
vn 0.0000 1.0000 -0.0000
vn 0.0000 0.0000 1.0000
vn 1.0000 0.0000 -0.0000
vn 0.0000 0.0000 -1.0000
vn -1.0000 0.0000 -0.0000
# 6 vertex normals

vt 1.0000 0.0000 0.0000
vt 1.0000 1.0000 0.0000
vt 0.0000 1.0000 0.0000
vt 0.0000 0.0000 0.0000
# 4 texture coords

g Box003
usemtl 04___Default
s 2
f 17/9/13 18/10/13 19/11/13 20/12/13 
s 4
f 21/12/14 22/9/14 23/10/14 24/11/14 
s 8
f 17/12/15 20/9/15 22/10/15 21/11/15 
s 16
f 20/12/16 19/9/16 23/10/16 22/11/16 
s 32
f 19/12/17 18/9/17 24/10/17 23/11/17 
s 64
f 18/12/18 17/9/18 21/10/18 24/11/18 
# 6 polygons

#
# object Box004
#

v  -57.5492 0.0000 -80.5462
v  -57.5492 0.0000 -105.1978
v  45.6808 0.0000 -105.1978
v  45.6808 0.0000 -80.5462
v  -57.5492 3.4491 -80.5462
v  45.6808 3.4491 -80.5462
v  45.6808 3.4491 -105.1978
v  -57.5492 3.4491 -105.1978
# 8 vertices

vn 0.0000 -1.0000 -0.0000
vn 0.0000 1.0000 -0.0000
vn 0.0000 0.0000 1.0000
vn 1.0000 0.0000 -0.0000
vn 0.0000 0.0000 -1.0000
vn -1.0000 0.0000 -0.0000
# 6 vertex normals

vt 1.0000 0.0000 0.0000
vt 1.0000 1.0000 0.0000
vt 0.0000 1.0000 0.0000
vt 0.0000 0.0000 0.0000
# 4 texture coords

g Box004
usemtl 04___Default
s 2
f 25/13/19 26/14/19 27/15/19 28/16/19 
s 4
f 29/16/20 30/13/20 31/14/20 32/15/20 
s 8
f 25/16/21 28/13/21 30/14/21 29/15/21 
s 16
f 28/16/22 27/13/22 31/14/22 30/15/22 
s 32
f 27/16/23 26/13/23 32/14/23 31/15/23 
s 64
f 26/16/24 25/13/24 29/14/24 32/15/24 
# 6 polygons

#
# object Box005
#

v  -57.5492 0.0000 99.5096
v  -57.5492 0.0000 74.8580
v  45.6808 0.0000 74.8580
v  45.6808 0.0000 99.5096
v  -57.5492 3.4491 99.5096
v  45.6808 3.4491 99.5096
v  45.6808 3.4491 74.8580
v  -57.5492 3.4491 74.8580
# 8 vertices

vn 0.0000 -1.0000 -0.0000
vn 0.0000 1.0000 -0.0000
vn 0.0000 0.0000 1.0000
vn 1.0000 0.0000 -0.0000
vn 0.0000 0.0000 -1.0000
vn -1.0000 0.0000 -0.0000
# 6 vertex normals

vt 1.0000 0.0000 0.0000
vt 1.0000 1.0000 0.0000
vt 0.0000 1.0000 0.0000
vt 0.0000 0.0000 0.0000
# 4 texture coords

g Box005
usemtl 04___Default
s 2
f 33/17/25 34/18/25 35/19/25 36/20/25 
s 4
f 37/20/26 38/17/26 39/18/26 40/19/26 
s 8
f 33/20/27 36/17/27 38/18/27 37/19/27 
s 16
f 36/20/28 35/17/28 39/18/28 38/19/28 
s 32
f 35/20/29 34/17/29 40/18/29 39/19/29 
s 64
f 34/20/30 33/17/30 37/18/30 40/19/30 
# 6 polygons

#
# object Box006
#

v  -41.6199 2.6411 132.9913
v  -41.6199 2.6411 -134.3542
v  -41.3916 2.6411 -134.3542
v  -41.3916 2.6411 132.9913
v  -47.4952 15.8693 132.9913
v  -41.3916 15.8693 132.9913
v  -41.3916 15.8693 -134.3542
v  -47.4952 15.8693 -134.3542
v  -47.4952 2.6411 132.9913
v  -41.6199 9.4322 132.9913
v  -41.3916 9.4322 132.9913
v  -41.3916 9.4322 -134.3542
v  -47.4952 2.6411 -134.3542
v  -41.6199 9.4322 -134.3542
v  -35.5162 9.4322 132.9913
v  -35.5162 9.4322 -134.3542
v  -35.5162 2.6411 132.9913
v  -35.5162 2.6411 -134.3542
# 18 vertices

vn 0.0000 -1.0000 -0.0000
vn 0.0000 1.0000 -0.0000
vn 0.0000 0.0000 1.0000
vn 0.0000 -0.0000 1.0000
vn 1.0000 0.0000 -0.0000
vn -0.0000 -0.0000 -1.0000
vn 0.0000 0.0000 -1.0000
vn 0.0000 -0.0000 -1.0000
vn -1.0000 0.0000 -0.0000
vn -0.0000 1.0000 0.0000
vn -0.0000 1.0000 -0.0000
# 11 vertex normals

vt 0.0374 0.0000 0.0000
vt 0.0374 1.0000 0.0000
vt 0.0000 1.0000 0.0000
vt 0.0000 0.0000 0.0000
vt 1.0000 0.0000 0.0000
vt 1.0000 1.0000 0.0000
vt 0.9626 0.0000 0.0000
vt 0.9626 0.5134 0.0000
vt 1.0000 0.5134 0.0000
vt 0.0000 0.5134 0.0000
vt 0.0374 0.5134 0.0000
vt 0.9626 1.0000 0.0000
# 12 texture coords

g Box006
usemtl 02___Default
s 2
f 41/21/31 42/22/31 43/23/31 44/24/31 
s 4
f 45/24/32 46/25/32 47/26/32 48/23/32 
s 8
f 45/23/33 49/24/33 41/27/33 50/28/34 
f 46/26/34 45/23/33 50/28/34 51/29/34 
s 16
f 51/30/35 52/29/35 47/26/35 46/23/35 
s 32
f 42/21/36 53/25/37 48/26/38 54/31/36 
f 54/31/36 48/26/38 47/23/37 52/30/37 
s 64
f 53/24/39 49/25/39 45/26/39 48/23/39 
s 2
f 41/21/31 49/25/31 53/26/31 42/22/31 
s 8
f 41/27/33 44/25/33 51/29/34 50/28/34 
s 32
f 43/24/36 42/21/36 54/31/36 52/30/37 
s 4
f 51/21/40 55/25/41 56/26/40 52/22/40 
s 16
f 57/24/35 58/25/35 56/26/35 55/23/35 
s 4
f 44/27/31 43/32/31 58/23/31 57/24/31 
s 1
f 43/27/37 52/32/37 56/23/37 58/24/37 
f 44/21/33 57/25/33 55/26/33 51/22/33 
# 16 polygons

#
# object Box007
#

v  31.8240 2.6411 132.9913
v  31.8240 2.6411 -134.3542
v  31.5957 2.6411 -134.3542
v  31.5957 2.6411 132.9913
v  37.6994 15.8693 132.9913
v  31.5957 15.8693 132.9913
v  31.5957 15.8693 -134.3542
v  37.6994 15.8693 -134.3542
v  37.6994 2.6411 132.9913
v  31.8240 9.4322 132.9913
v  31.5957 9.4322 132.9913
v  31.5957 9.4322 -134.3542
v  37.6994 2.6411 -134.3542
v  31.8240 9.4322 -134.3542
v  25.7204 9.4322 132.9913
v  25.7204 9.4322 -134.3542
v  25.7204 2.6411 132.9913
v  25.7204 2.6411 -134.3542
# 18 vertices

vn -0.0000 -1.0000 -0.0000
vn 0.0000 1.0000 -0.0000
vn 0.0000 0.0000 1.0000
vn -0.0000 0.0000 1.0000
vn -0.0000 -0.0000 1.0000
vn -1.0000 0.0000 -0.0000
vn 0.0000 -0.0000 -1.0000
vn -0.0000 0.0000 -1.0000
vn -0.0000 -0.0000 -1.0000
vn 0.0000 0.0000 -1.0000
vn 1.0000 0.0000 -0.0000
vn 0.0000 -1.0000 -0.0000
vn 0.0000 1.0000 0.0000
# 13 vertex normals

vt 0.0374 0.0000 0.0000
vt 0.0374 1.0000 0.0000
vt 0.0000 1.0000 0.0000
vt 0.0000 0.0000 0.0000
vt 1.0000 0.0000 0.0000
vt 1.0000 1.0000 0.0000
vt 0.9626 0.0000 0.0000
vt 0.9626 0.5134 0.0000
vt 1.0000 0.5134 0.0000
vt 0.0000 0.5134 0.0000
vt 0.0374 0.5134 0.0000
vt 0.9626 1.0000 0.0000
# 12 texture coords

g Box007
usemtl 02___Default
s 2
f 62/36/42 61/35/42 60/34/42 59/33/42 
s 4
f 66/35/43 65/38/43 64/37/43 63/36/43 
s 8
f 68/40/46 59/39/45 67/36/44 63/35/44 
f 69/41/46 68/40/46 63/35/44 64/38/46 
s 16
f 64/35/47 65/38/47 70/41/47 69/42/47 
s 32
f 72/43/48 66/38/50 71/37/49 60/33/48 
f 70/42/51 65/35/51 66/38/50 72/43/48 
s 64
f 66/35/52 63/38/52 67/37/52 71/36/52 
s 2
f 60/34/42 71/38/53 67/37/53 59/33/42 
s 8
f 68/40/46 69/41/46 62/37/45 59/39/45 
s 32
f 70/42/51 72/43/48 60/33/48 61/36/48 
s 4
f 70/34/54 74/38/54 73/37/43 69/33/54 
s 16
f 73/35/47 74/38/47 76/37/47 75/36/47 
s 4
f 75/36/42 76/35/42 61/44/42 62/39/42 
s 1
f 76/36/49 74/35/49 70/44/49 61/39/49 
f 69/34/44 73/38/44 75/37/44 62/33/44 
# 16 polygons

#
# object Box008
#

v  -57.5492 0.0000 144.5092
v  -57.5492 0.0000 119.8576
v  45.6808 0.0000 119.8576
v  45.6808 0.0000 144.5092
v  -57.5492 3.4491 144.5092
v  45.6808 3.4491 144.5092
v  45.6808 3.4491 119.8576
v  -57.5492 3.4491 119.8576
# 8 vertices

vn 0.0000 -1.0000 -0.0000
vn 0.0000 1.0000 -0.0000
vn 0.0000 0.0000 1.0000
vn 1.0000 0.0000 -0.0000
vn 0.0000 0.0000 -1.0000
vn -1.0000 0.0000 -0.0000
# 6 vertex normals

vt 1.0000 0.0000 0.0000
vt 1.0000 1.0000 0.0000
vt 0.0000 1.0000 0.0000
vt 0.0000 0.0000 0.0000
# 4 texture coords

g Box008
usemtl 04___Default
s 2
f 77/45/55 78/46/55 79/47/55 80/48/55 
s 4
f 81/48/56 82/45/56 83/46/56 84/47/56 
s 8
f 77/48/57 80/45/57 82/46/57 81/47/57 
s 16
f 80/48/58 79/45/58 83/46/58 82/47/58 
s 32
f 79/48/59 78/45/59 84/46/59 83/47/59 
s 64
f 78/48/60 77/45/60 81/46/60 84/47/60 
# 6 polygons

