# 3ds Max Wavefront OBJ Exporter v0.97b - (c)2007 guruware
# File Created: 08.11.2017 12:51:57

mtllib Lantern.mtl

#
# object Box001
#

v  10.4360 0.0000 8.7658
v  10.4360 0.0000 -13.1415
v  33.8644 0.0000 -13.1415
v  33.8644 0.0000 8.7658
v  9.7283 38.7507 9.1130
v  34.5722 38.7507 9.1130
v  34.5722 38.7507 -13.4886
v  9.7283 38.7507 -13.4886
v  4.8826 34.1988 13.9587
v  39.4179 34.1988 13.9587
v  39.4179 34.1988 -18.3343
v  4.8826 34.1988 -18.3343
v  32.4658 1.6225 9.0122
v  11.8346 1.6225 9.0122
v  37.4923 32.5763 13.7123
v  6.8081 32.5763 13.7123
v  34.1275 1.6198 -11.7281
v  34.1275 1.6198 7.3524
v  39.1548 32.5789 -16.4290
v  39.1548 32.5789 12.0533
v  11.8346 1.6225 -13.3878
v  32.4658 1.6225 -13.3878
v  6.8081 32.5763 -18.0880
v  37.4923 32.5763 -18.0880
v  10.1730 1.6198 7.3524
v  10.1730 1.6198 -11.7281
v  5.1456 32.5789 12.0533
v  5.1456 32.5789 -16.4290
v  32.4658 1.8532 7.4925
v  11.8346 1.8532 7.4925
v  37.4923 32.8070 12.1927
v  6.8081 32.8070 12.1927
v  32.6103 1.8662 -11.7281
v  32.6103 1.8662 7.3524
v  37.6376 32.8253 -16.4290
v  37.6376 32.8253 12.0533
v  11.8346 1.8532 -11.8682
v  32.4658 1.8532 -11.8682
v  6.8081 32.8070 -16.5683
v  37.4923 32.8070 -16.5683
v  11.6902 1.8662 7.3524
v  11.6902 1.8662 -11.7281
v  6.6628 32.8253 12.0533
v  6.6628 32.8253 -16.4290
v  11.7012 1.8731 7.5827
v  11.7012 1.8731 -11.9584
v  32.5992 1.8731 -11.9584
v  32.5992 1.8731 7.5827
v  5.3323 33.1850 13.5381
v  5.3323 33.1850 -17.9138
v  38.9681 33.1850 -17.9138
v  38.9681 33.1850 13.5381
# 52 vertices

vn 0.0000 -1.0000 -0.0000
vn 0.0000 1.0000 -0.0000
vn 0.0000 0.7289 0.6847
vn 0.6847 0.7289 -0.0000
vn 0.0000 0.7289 -0.6847
vn -0.6847 0.7289 -0.0000
vn 0.0000 -0.1501 0.9887
vn -0.0000 -0.1501 0.9887
vn 0.9871 -0.1603 -0.0000
vn 0.9871 -0.1603 0.0000
vn 0.0000 -0.1501 -0.9887
vn -0.0000 -0.1501 -0.9887
vn -0.9871 -0.1603 -0.0000
vn -0.9871 -0.1603 0.0000
vn 0.0000 0.9887 0.1501
vn -0.9874 0.1567 0.0238
vn 0.0000 -0.9887 -0.1501
vn 0.9874 0.1567 0.0238
vn 0.1603 0.9871 -0.0000
vn 0.0238 0.1463 0.9890
vn -0.1603 -0.9871 -0.0000
vn 0.0238 0.1463 -0.9890
vn 0.0000 0.9887 -0.1501
vn 0.9874 0.1567 -0.0238
vn 0.0000 -0.9887 0.1501
vn -0.9874 0.1567 -0.0238
vn -0.1603 0.9871 -0.0000
vn -0.0238 0.1463 -0.9890
vn 0.1603 -0.9871 -0.0000
vn -0.0238 0.1463 0.9890
# 30 vertex normals

vt 1.0000 0.0000 0.0000
vt 1.0000 1.0000 0.0000
vt 0.0000 1.0000 0.0000
vt 0.0000 0.0000 0.0000
# 4 texture coords

g Box001
usemtl 10___Default
s 2
f 1/1/1 2/2/1 3/3/1 4/4/1 
s 4
f 5/4/2 6/1/2 7/2/2 8/3/2 
s off
f 9/4/3 10/1/3 6/1/3 5/4/3 
f 10/1/4 11/2/4 7/2/4 6/1/4 
f 11/2/5 12/3/5 8/3/5 7/2/5 
f 12/3/6 9/4/6 5/4/6 8/3/6 
f 1/4/7 4/1/7 13/1/7 14/4/7 
f 4/1/8 10/2/8 15/2/8 13/1/8 
f 10/2/7 9/3/7 16/3/7 15/2/7 
f 9/3/7 1/4/7 14/4/7 16/3/7 
f 4/4/9 3/1/9 17/1/9 18/4/9 
f 3/1/10 11/2/10 19/2/10 17/1/10 
f 11/2/9 10/3/9 20/3/9 19/2/9 
f 10/3/9 4/4/9 18/4/9 20/3/9 
f 3/4/11 2/1/11 21/1/11 22/4/11 
f 2/1/11 12/2/11 23/2/11 21/1/11 
f 12/2/11 11/3/11 24/3/11 23/2/11 
f 11/3/12 3/4/12 22/4/12 24/3/12 
f 2/4/13 1/1/13 25/1/13 26/4/13 
f 1/1/13 9/2/13 27/2/13 25/1/13 
f 9/2/13 12/3/13 28/3/13 27/2/13 
f 12/3/14 2/4/14 26/4/14 28/3/14 
f 14/4/15 13/1/15 29/1/15 30/4/15 
f 13/1/16 15/2/16 31/2/16 29/1/16 
f 15/2/17 16/3/17 32/3/17 31/2/17 
f 16/3/18 14/4/18 30/4/18 32/3/18 
f 18/4/19 17/1/19 33/1/19 34/4/19 
f 17/1/20 19/2/20 35/2/20 33/1/20 
f 19/2/21 20/3/21 36/3/21 35/2/21 
f 20/3/22 18/4/22 34/4/22 36/3/22 
f 22/4/23 21/1/23 37/1/23 38/4/23 
f 21/1/24 23/2/24 39/2/24 37/1/24 
f 23/2/25 24/3/25 40/3/25 39/2/25 
f 24/3/26 22/4/26 38/4/26 40/3/26 
f 26/4/27 25/1/27 41/1/27 42/4/27 
f 25/1/28 27/2/28 43/2/28 41/1/28 
f 27/2/29 28/3/29 44/3/29 43/2/29 
f 28/3/30 26/4/30 42/4/30 44/3/30 
s 2
f 45/1/1 46/2/1 47/3/1 48/4/1 
f 49/1/1 50/2/1 51/3/1 52/4/1 
# 40 polygons

#
# object Cylinder001
#

v  21.5604 41.4174 3.0243
v  20.9108 41.3582 3.0884
v  20.9108 51.9669 2.9178
v  21.5604 51.8945 2.8558
v  20.3395 41.1879 3.2729
v  20.3395 52.1754 3.0963
v  19.9155 40.9270 3.5557
v  19.9155 52.4948 3.3697
v  19.6899 40.6069 3.9027
v  19.6899 52.8866 3.7052
v  19.6899 40.2663 4.2718
v  19.6899 53.3036 4.0622
v  19.9155 39.9463 4.6188
v  19.9155 53.6954 4.3977
v  20.3395 39.6854 4.9016
v  20.3395 54.0148 4.6712
v  20.9107 39.5151 5.0862
v  20.9107 54.2233 4.8497
v  21.5603 39.4559 5.1503
v  21.5603 54.2957 4.9117
v  22.2099 39.5151 5.0863
v  22.2099 54.2233 4.8497
v  22.7811 39.6854 4.9017
v  22.7812 54.0148 4.6713
v  23.2051 39.9463 4.6189
v  23.2052 53.6954 4.3978
v  23.4308 40.2663 4.2720
v  23.4308 53.3036 4.0623
v  23.4308 40.6069 3.9028
v  23.4308 52.8866 3.7053
v  23.2052 40.9270 3.5559
v  23.2052 52.4948 3.3698
v  22.7812 41.1879 3.2730
v  22.7812 52.1754 3.0963
v  22.2100 41.3582 3.0884
v  22.2100 51.9669 2.9178
v  20.9109 59.3122 -0.0470
v  21.5605 59.1487 -0.0722
v  20.3396 59.7830 0.0257
v  19.9156 60.5042 0.1369
v  19.6900 61.3889 0.2735
v  19.6900 62.3304 0.4188
v  19.9156 63.2151 0.5553
v  20.3396 63.9363 0.6666
v  20.9109 64.4071 0.7393
v  21.5604 64.5706 0.7645
v  22.2100 64.4071 0.7393
v  22.7813 63.9363 0.6667
v  23.2053 63.2151 0.5554
v  23.4309 62.3304 0.4189
v  23.4309 61.3889 0.2736
v  23.2053 60.5042 0.1371
v  22.7813 59.7830 0.0257
v  22.2101 59.3122 -0.0469
v  20.9110 59.2888 -4.1489
v  21.5606 59.1256 -4.1232
v  20.3398 59.7587 -4.2227
v  19.9158 60.4787 -4.3358
v  19.6902 61.3618 -4.4745
v  19.6902 62.3016 -4.6221
v  19.9158 63.1848 -4.7609
v  20.3398 63.9047 -4.8739
v  20.9111 64.3746 -4.9477
v  21.5607 64.5378 -4.9733
v  22.2103 64.3746 -4.9477
v  22.7815 63.9047 -4.8738
v  23.2055 63.1848 -4.7607
v  23.4311 62.3016 -4.6220
v  23.4311 61.3618 -4.4744
v  23.2055 60.4787 -4.3357
v  22.7815 59.7587 -4.2226
v  22.2102 59.2888 -4.1488
v  20.9111 51.9098 -7.0954
v  21.5607 51.8381 -7.0332
v  20.3399 52.1162 -7.2744
v  19.9159 52.4325 -7.5487
v  19.6903 52.8205 -7.8851
v  19.6903 53.2334 -8.2432
v  19.9160 53.6214 -8.5796
v  20.3400 53.9377 -8.8539
v  20.9112 54.1441 -9.0329
v  21.5608 54.2158 -9.0950
v  22.2104 54.1441 -9.0328
v  22.7816 53.9377 -8.8538
v  23.2056 53.6214 -8.5795
v  23.4312 53.2334 -8.2430
v  23.4312 52.8205 -7.8850
v  23.2056 52.4325 -7.5486
v  22.7816 52.1162 -7.2743
v  22.2103 51.9098 -7.0953
v  20.9111 41.2993 -7.2397
v  21.5607 41.3591 -7.1757
v  20.3399 41.1269 -7.4239
v  19.9159 40.8627 -7.7061
v  19.6903 40.5387 -8.0522
v  19.6903 40.1939 -8.4206
v  19.9160 39.8699 -8.7667
v  20.3400 39.6058 -9.0488
v  20.9112 39.4333 -9.2330
v  21.5608 39.3735 -9.2969
v  22.2104 39.4333 -9.2329
v  22.7816 39.6058 -9.0487
v  23.2056 39.8699 -8.7665
v  23.4312 40.1939 -8.4204
v  23.4312 40.5387 -8.0521
v  23.2056 40.8627 -7.7060
v  22.7816 41.1269 -7.4238
v  22.2103 41.2993 -7.2397
# 108 vertices

vn 0.0000 -0.0441 -0.9992
vn -0.3332 -0.0416 -0.9421
vn -0.3561 -0.3872 -0.8522
vn 0.0000 -0.4143 -0.9120
vn -0.6358 -0.0340 -0.7712
vn -0.6641 -0.3098 -0.6818
vn -0.8689 -0.0218 -0.4945
vn -0.8842 -0.1935 -0.4260
vn -0.9898 -0.0063 -0.1421
vn -0.9912 -0.0547 -0.1205
vn -0.9732 0.0101 0.2297
vn -0.9768 0.0887 0.1951
vn -0.8291 0.0246 0.5586
vn -0.8479 0.2197 0.4835
vn -0.5942 0.0355 0.8037
vn -0.6230 0.3241 0.7134
vn -0.3079 0.0419 0.9507
vn -0.3294 0.3912 0.8611
vn -0.0000 0.0441 0.9992
vn -0.0000 0.4143 0.9120
vn 0.3078 0.0419 0.9507
vn 0.3294 0.3912 0.8611
vn 0.5941 0.0355 0.8037
vn 0.6229 0.3241 0.7134
vn 0.8291 0.0246 0.5586
vn 0.8478 0.2197 0.4836
vn 0.9732 0.0101 0.2298
vn 0.9768 0.0887 0.1952
vn 0.9898 -0.0063 -0.1420
vn 0.9912 -0.0547 -0.1204
vn 0.8690 -0.0218 -0.4945
vn 0.8842 -0.1935 -0.4259
vn 0.6359 -0.0340 -0.7712
vn 0.6641 -0.3098 -0.6818
vn 0.3333 -0.0416 -0.9421
vn 0.3561 -0.3872 -0.8522
vn -0.3561 -0.8687 -0.3482
vn 0.0000 -0.9296 -0.3726
vn -0.6641 -0.6950 -0.2786
vn -0.8842 -0.4342 -0.1741
vn -0.9912 -0.1228 -0.0492
vn -0.9768 0.1990 0.0797
vn -0.8478 0.4929 0.1976
vn -0.6230 0.7272 0.2915
vn -0.3294 0.8778 0.3518
vn -0.0000 0.9296 0.3726
vn 0.3294 0.8778 0.3519
vn 0.6230 0.7272 0.2915
vn 0.8478 0.4929 0.1976
vn 0.9768 0.1990 0.0798
vn 0.9912 -0.1228 -0.0492
vn 0.8842 -0.4342 -0.1740
vn 0.6641 -0.6950 -0.2786
vn 0.3561 -0.8687 -0.3482
vn -0.3561 -0.8647 0.3503
vn -0.0000 -0.9254 0.3749
vn -0.6641 -0.6919 0.2803
vn -0.8842 -0.4322 0.1751
vn -0.9912 -0.1222 0.0495
vn -0.9768 0.1981 -0.0803
vn -0.8478 0.4907 -0.1988
vn -0.6230 0.7239 -0.2933
vn -0.3294 0.8737 -0.3540
vn 0.0000 0.9254 -0.3749
vn 0.3294 0.8737 -0.3540
vn 0.6230 0.7239 -0.2933
vn 0.8478 0.4907 -0.1988
vn 0.9768 0.1981 -0.0802
vn 0.9912 -0.1222 0.0495
vn 0.8842 -0.4322 0.1752
vn 0.6641 -0.6919 0.2803
vn 0.3561 -0.8647 0.3504
vn -0.3561 -0.3774 0.8531
vn -0.0000 -0.4039 0.9130
vn -0.6641 -0.3020 0.6826
vn -0.8842 -0.1887 0.4264
vn -0.9912 -0.0533 0.1205
vn -0.9768 0.0865 -0.1954
vn -0.8478 0.2142 -0.4841
vn -0.6229 0.3160 -0.7142
vn -0.3294 0.3814 -0.8620
vn 0.0000 0.4039 -0.9130
vn 0.3294 0.3814 -0.8620
vn 0.6230 0.3160 -0.7141
vn 0.8479 0.2142 -0.4841
vn 0.9768 0.0865 -0.1954
vn 0.9912 -0.0533 0.1206
vn 0.8842 -0.1887 0.4265
vn 0.6641 -0.3020 0.6826
vn 0.3561 -0.3774 0.8531
vn -0.3333 -0.0308 0.9422
vn -0.0000 -0.0327 0.9993
vn -0.6359 -0.0252 0.7712
vn -0.8690 -0.0162 0.4945
vn -0.9898 -0.0046 0.1420
vn -0.9732 0.0075 -0.2298
vn -0.8291 0.0183 -0.5587
vn -0.5941 0.0263 -0.8038
vn -0.3078 0.0311 -0.9508
vn 0.0000 0.0327 -0.9993
vn 0.3079 0.0311 -0.9507
vn 0.5942 0.0263 -0.8038
vn 0.8291 0.0183 -0.5586
vn 0.9732 0.0075 -0.2297
vn 0.9898 -0.0046 0.1421
vn 0.8689 -0.0162 0.4946
vn 0.6358 -0.0252 0.7713
vn 0.3332 -0.0308 0.9422
vn 0.0000 -0.9431 -0.3367
vn -0.0000 -0.9392 0.3391
# 110 vertex normals

vt 0.7500 0.0000 1.0000
vt 0.8056 0.0000 1.0000
vt 0.8056 0.2000 1.0000
vt 0.7500 0.2000 1.0000
vt 0.8611 0.0000 1.0000
vt 0.8611 0.2000 1.0000
vt 0.9167 0.0000 1.0000
vt 0.9167 0.2000 1.0000
vt 0.9722 0.0000 1.0000
vt 0.9722 0.2000 1.0000
vt 1.0278 0.0000 1.0000
vt 1.0278 0.2000 1.0000
vt 0.0278 0.0000 1.0000
vt 0.0833 0.0000 1.0000
vt 0.0833 0.2000 1.0000
vt 0.0278 0.2000 1.0000
vt 0.1389 0.0000 1.0000
vt 0.1389 0.2000 1.0000
vt 0.1944 0.0000 1.0000
vt 0.1944 0.2000 1.0000
vt 0.2500 0.0000 1.0000
vt 0.2500 0.2000 1.0000
vt 0.3056 0.0000 1.0000
vt 0.3056 0.2000 1.0000
vt 0.3611 0.0000 1.0000
vt 0.3611 0.2000 1.0000
vt 0.4167 0.0000 1.0000
vt 0.4167 0.2000 1.0000
vt 0.4722 0.0000 1.0000
vt 0.4722 0.2000 1.0000
vt 0.5278 0.0000 1.0000
vt 0.5278 0.2000 1.0000
vt 0.5833 0.0000 1.0000
vt 0.5833 0.2000 1.0000
vt 0.6389 0.0000 1.0000
vt 0.6389 0.2000 1.0000
vt 0.6944 0.0000 1.0000
vt 0.6944 0.2000 1.0000
vt 0.8056 0.4000 1.0000
vt 0.7500 0.4000 1.0000
vt 0.8611 0.4000 1.0000
vt 0.9167 0.4000 1.0000
vt 0.9722 0.4000 1.0000
vt 1.0278 0.4000 1.0000
vt 0.0833 0.4000 1.0000
vt 0.0278 0.4000 1.0000
vt 0.1389 0.4000 1.0000
vt 0.1944 0.4000 1.0000
vt 0.2500 0.4000 1.0000
vt 0.3056 0.4000 1.0000
vt 0.3611 0.4000 1.0000
vt 0.4167 0.4000 1.0000
vt 0.4722 0.4000 1.0000
vt 0.5278 0.4000 1.0000
vt 0.5833 0.4000 1.0000
vt 0.6389 0.4000 1.0000
vt 0.6944 0.4000 1.0000
vt 0.8056 0.6000 1.0000
vt 0.7500 0.6000 1.0000
vt 0.8611 0.6000 1.0000
vt 0.9167 0.6000 1.0000
vt 0.9722 0.6000 1.0000
vt 1.0278 0.6000 1.0000
vt 0.0833 0.6000 1.0000
vt 0.0278 0.6000 1.0000
vt 0.1389 0.6000 1.0000
vt 0.1944 0.6000 1.0000
vt 0.2500 0.6000 1.0000
vt 0.3056 0.6000 1.0000
vt 0.3611 0.6000 1.0000
vt 0.4167 0.6000 1.0000
vt 0.4722 0.6000 1.0000
vt 0.5278 0.6000 1.0000
vt 0.5833 0.6000 1.0000
vt 0.6389 0.6000 1.0000
vt 0.6944 0.6000 1.0000
vt 0.8056 0.8000 1.0000
vt 0.7500 0.8000 1.0000
vt 0.8611 0.8000 1.0000
vt 0.9167 0.8000 1.0000
vt 0.9722 0.8000 1.0000
vt 1.0278 0.8000 1.0000
vt 0.0833 0.8000 1.0000
vt 0.0278 0.8000 1.0000
vt 0.1389 0.8000 1.0000
vt 0.1944 0.8000 1.0000
vt 0.2500 0.8000 1.0000
vt 0.3056 0.8000 1.0000
vt 0.3611 0.8000 1.0000
vt 0.4167 0.8000 1.0000
vt 0.4722 0.8000 1.0000
vt 0.5278 0.8000 1.0000
vt 0.5833 0.8000 1.0000
vt 0.6389 0.8000 1.0000
vt 0.6944 0.8000 1.0000
vt 0.8056 1.0000 1.0000
vt 0.7500 1.0000 1.0000
vt 0.8611 1.0000 1.0000
vt 0.9167 1.0000 1.0000
vt 0.9722 1.0000 1.0000
vt 1.0278 1.0000 1.0000
vt 0.0833 1.0000 1.0000
vt 0.0278 1.0000 1.0000
vt 0.1389 1.0000 1.0000
vt 0.1944 1.0000 1.0000
vt 0.2500 1.0000 1.0000
vt 0.3056 1.0000 1.0000
vt 0.3611 1.0000 1.0000
vt 0.4167 1.0000 1.0000
vt 0.4722 1.0000 1.0000
vt 0.5278 1.0000 1.0000
vt 0.5833 1.0000 1.0000
vt 0.6389 1.0000 1.0000
vt 0.6944 1.0000 1.0000
vt 0.8214 0.8830 -0.2500
vt 0.9330 0.7500 -0.2500
vt 0.9924 0.5868 -0.2500
vt 0.5000 1.0000 -0.2500
vt 0.9924 0.4132 -0.2500
vt 0.9330 0.2500 -0.2500
vt 0.6710 0.0302 -0.2500
vt 0.8214 0.1170 -0.2500
vt 0.5000 0.0000 -0.2500
vt 0.3290 0.0302 -0.2500
vt 0.0670 0.2500 -0.2500
vt 0.1786 0.1170 -0.2500
vt 0.0076 0.4132 -0.2500
vt 0.0076 0.5868 -0.2500
vt 0.1786 0.8830 -0.2500
vt 0.0670 0.7500 -0.2500
vt 0.3290 0.9698 -0.2500
vt 0.6710 0.9698 -0.2500
vt 0.3290 0.9698 0.2500
vt 0.1786 0.8830 0.2500
vt 0.0670 0.7500 0.2500
vt 0.6710 0.9698 0.2500
vt 0.0076 0.5868 0.2500
vt 0.0076 0.4132 0.2500
vt 0.1786 0.1170 0.2500
vt 0.0670 0.2500 0.2500
vt 0.3290 0.0302 0.2500
vt 0.5000 0.0000 0.2500
vt 0.8214 0.1170 0.2500
vt 0.6710 0.0302 0.2500
vt 0.9330 0.2500 0.2500
vt 0.9924 0.4132 0.2500
vt 0.9330 0.7500 0.2500
vt 0.9924 0.5868 0.2500
vt 0.8214 0.8830 0.2500
vt 0.5000 1.0000 0.2500
# 150 texture coords

g Cylinder001
usemtl 10___Default
s 8
f 53/5/31 54/6/32 55/7/33 56/8/34 
f 54/6/32 57/9/35 58/10/36 55/7/33 
f 57/9/35 59/11/37 60/12/38 58/10/36 
f 59/11/37 61/13/39 62/14/40 60/12/38 
f 61/13/39 63/15/41 64/16/42 62/14/40 
f 63/17/41 65/18/43 66/19/44 64/20/42 
f 65/18/43 67/21/45 68/22/46 66/19/44 
f 67/21/45 69/23/47 70/24/48 68/22/46 
f 69/23/47 71/25/49 72/26/50 70/24/48 
f 71/25/49 73/27/51 74/28/52 72/26/50 
f 73/27/51 75/29/53 76/30/54 74/28/52 
f 75/29/53 77/31/55 78/32/56 76/30/54 
f 77/31/55 79/33/57 80/34/58 78/32/56 
f 79/33/57 81/35/59 82/36/60 80/34/58 
f 81/35/59 83/37/61 84/38/62 82/36/60 
f 83/37/61 85/39/63 86/40/64 84/38/62 
f 85/39/63 87/41/65 88/42/66 86/40/64 
f 87/41/65 53/5/31 56/8/34 88/42/66 
f 56/8/34 55/7/33 89/43/67 90/44/68 
f 55/7/33 58/10/36 91/45/69 89/43/67 
f 58/10/36 60/12/38 92/46/70 91/45/69 
f 60/12/38 62/14/40 93/47/71 92/46/70 
f 62/14/40 64/16/42 94/48/72 93/47/71 
f 64/20/42 66/19/44 95/49/73 94/50/72 
f 66/19/44 68/22/46 96/51/74 95/49/73 
f 68/22/46 70/24/48 97/52/75 96/51/74 
f 70/24/48 72/26/50 98/53/76 97/52/75 
f 72/26/50 74/28/52 99/54/77 98/53/76 
f 74/28/52 76/30/54 100/55/78 99/54/77 
f 76/30/54 78/32/56 101/56/79 100/55/78 
f 78/32/56 80/34/58 102/57/80 101/56/79 
f 80/34/58 82/36/60 103/58/81 102/57/80 
f 82/36/60 84/38/62 104/59/82 103/58/81 
f 84/38/62 86/40/64 105/60/83 104/59/82 
f 86/40/64 88/42/66 106/61/84 105/60/83 
f 88/42/66 56/8/34 90/44/68 106/61/84 
f 90/44/68 89/43/67 107/62/85 108/63/86 
f 89/43/67 91/45/69 109/64/87 107/62/85 
f 91/45/69 92/46/70 110/65/88 109/64/87 
f 92/46/70 93/47/71 111/66/89 110/65/88 
f 93/47/71 94/48/72 112/67/90 111/66/89 
f 94/50/72 95/49/73 113/68/91 112/69/90 
f 95/49/73 96/51/74 114/70/92 113/68/91 
f 96/51/74 97/52/75 115/71/93 114/70/92 
f 97/52/75 98/53/76 116/72/94 115/71/93 
f 98/53/76 99/54/77 117/73/95 116/72/94 
f 99/54/77 100/55/78 118/74/96 117/73/95 
f 100/55/78 101/56/79 119/75/97 118/74/96 
f 101/56/79 102/57/80 120/76/98 119/75/97 
f 102/57/80 103/58/81 121/77/99 120/76/98 
f 103/58/81 104/59/82 122/78/100 121/77/99 
f 104/59/82 105/60/83 123/79/101 122/78/100 
f 105/60/83 106/61/84 124/80/102 123/79/101 
f 106/61/84 90/44/68 108/63/86 124/80/102 
f 108/63/86 107/62/85 125/81/103 126/82/104 
f 107/62/85 109/64/87 127/83/105 125/81/103 
f 109/64/87 110/65/88 128/84/106 127/83/105 
f 110/65/88 111/66/89 129/85/107 128/84/106 
f 111/66/89 112/67/90 130/86/108 129/85/107 
f 112/69/90 113/68/91 131/87/109 130/88/108 
f 113/68/91 114/70/92 132/89/110 131/87/109 
f 114/70/92 115/71/93 133/90/111 132/89/110 
f 115/71/93 116/72/94 134/91/112 133/90/111 
f 116/72/94 117/73/95 135/92/113 134/91/112 
f 117/73/95 118/74/96 136/93/114 135/92/113 
f 118/74/96 119/75/97 137/94/115 136/93/114 
f 119/75/97 120/76/98 138/95/116 137/94/115 
f 120/76/98 121/77/99 139/96/117 138/95/116 
f 121/77/99 122/78/100 140/97/118 139/96/117 
f 122/78/100 123/79/101 141/98/119 140/97/118 
f 123/79/101 124/80/102 142/99/120 141/98/119 
f 124/80/102 108/63/86 126/82/104 142/99/120 
f 126/82/104 125/81/103 143/100/121 144/101/122 
f 125/81/103 127/83/105 145/102/123 143/100/121 
f 127/83/105 128/84/106 146/103/124 145/102/123 
f 128/84/106 129/85/107 147/104/125 146/103/124 
f 129/85/107 130/86/108 148/105/126 147/104/125 
f 130/88/108 131/87/109 149/106/127 148/107/126 
f 131/87/109 132/89/110 150/108/128 149/106/127 
f 132/89/110 133/90/111 151/109/129 150/108/128 
f 133/90/111 134/91/112 152/110/130 151/109/129 
f 134/91/112 135/92/113 153/111/131 152/110/130 
f 135/92/113 136/93/114 154/112/132 153/111/131 
f 136/93/114 137/94/115 155/113/133 154/112/132 
f 137/94/115 138/95/116 156/114/134 155/113/133 
f 138/95/116 139/96/117 157/115/135 156/114/134 
f 139/96/117 140/97/118 158/116/136 157/115/135 
f 140/97/118 141/98/119 159/117/137 158/116/136 
f 141/98/119 142/99/120 160/118/138 159/117/137 
f 142/99/120 126/82/104 144/101/122 160/118/138 
s 1
f 85/119/139 83/120/139 81/121/139 53/122/139 
f 81/121/139 79/123/139 77/124/139 73/125/139 
f 77/124/139 75/126/139 73/125/139 
f 73/125/139 71/127/139 69/128/139 65/129/139 
f 69/128/139 67/130/139 65/129/139 
f 65/129/139 63/131/139 61/132/139 57/133/139 
f 61/132/139 59/134/139 57/133/139 
f 73/125/139 65/129/139 57/133/139 81/121/139 
f 57/133/139 54/135/139 53/122/139 81/121/139 
f 87/136/139 85/119/139 53/122/139 
f 143/137/140 145/138/140 146/139/140 160/140/140 
f 146/139/140 147/141/140 148/142/140 150/143/140 
f 148/142/140 149/144/140 150/143/140 
f 150/143/140 151/145/140 152/146/140 154/147/140 
f 152/146/140 153/148/140 154/147/140 
f 154/147/140 155/149/140 156/150/140 158/151/140 
f 156/150/140 157/152/140 158/151/140 
f 150/143/140 154/147/140 158/151/140 146/139/140 
f 158/151/140 159/153/140 160/140/140 146/139/140 
f 144/154/140 143/137/140 160/140/140 
# 102 polygons - 8 triangles

#
# object Cylinder002
#

v  22.1451 38.0618 -1.9956
v  28.7903 38.0618 -7.5716
v  30.2966 38.0618 -4.9625
v  30.8198 38.0618 -1.9956
v  23.6514 38.0618 -10.5385
v  26.4824 38.0618 -9.5081
v  17.8078 38.0618 -9.5081
v  20.6388 38.0618 -10.5385
v  13.9936 38.0618 -4.9625
v  15.4999 38.0618 -7.5716
v  13.9936 38.0618 0.9713
v  13.4704 38.0618 -1.9956
v  17.8078 38.0618 5.5169
v  15.4999 38.0618 3.5804
v  23.6514 38.0618 6.5473
v  20.6388 38.0618 6.5473
v  28.7903 38.0618 3.5804
v  26.4824 38.0618 5.5169
v  30.2966 38.0618 0.9713
v  30.2966 39.7723 -4.9625
v  30.8198 39.7723 -1.9956
v  28.7903 39.7723 -7.5716
v  26.4824 39.7723 -9.5081
v  23.6514 39.7723 -10.5385
v  20.6388 39.7723 -10.5385
v  17.8078 39.7723 -9.5081
v  15.4999 39.7723 -7.5716
v  13.9936 39.7723 -4.9625
v  13.4704 39.7723 -1.9956
v  13.9936 39.7723 0.9713
v  15.4999 39.7723 3.5804
v  17.8078 39.7723 5.5169
v  20.6388 39.7723 6.5473
v  23.6514 39.7723 6.5473
v  26.4824 39.7723 5.5169
v  28.7903 39.7723 3.5804
v  30.2966 39.7723 0.9713
v  30.2966 41.4827 -4.9625
v  30.8198 41.4827 -1.9956
v  28.7903 41.4827 -7.5716
v  26.4824 41.4827 -9.5081
v  23.6514 41.4827 -10.5385
v  20.6388 41.4827 -10.5385
v  17.8078 41.4827 -9.5081
v  15.4999 41.4827 -7.5716
v  13.9936 41.4827 -4.9625
v  13.4704 41.4827 -1.9956
v  13.9936 41.4827 0.9713
v  15.4999 41.4827 3.5804
v  17.8078 41.4827 5.5169
v  20.6388 41.4827 6.5473
v  23.6514 41.4827 6.5473
v  26.4824 41.4827 5.5169
v  28.7903 41.4827 3.5804
v  30.2966 41.4827 0.9713
v  22.1451 41.4827 -1.9956
# 56 vertices

vn 0.0000 -1.0000 -0.0000
vn 1.0000 0.0000 0.0000
vn 0.9397 0.0000 -0.3420
vn 0.7660 0.0000 -0.6428
vn 0.5000 0.0000 -0.8660
vn 0.1736 0.0000 -0.9848
vn -0.1736 0.0000 -0.9848
vn -0.5000 0.0000 -0.8660
vn -0.7660 0.0000 -0.6428
vn -0.9397 0.0000 -0.3420
vn -1.0000 0.0000 -0.0000
vn -0.9397 0.0000 0.3420
vn -0.7660 0.0000 0.6428
vn -0.5000 0.0000 0.8660
vn -0.1736 0.0000 0.9848
vn 0.1736 0.0000 0.9848
vn 0.5000 0.0000 0.8660
vn 0.7660 0.0000 0.6428
vn 0.9397 0.0000 0.3420
vn 0.0000 1.0000 -0.0000
# 20 vertex normals

vt 0.5000 0.0000 0.0000
vt 0.8611 0.0000 1.0000
vt 0.8056 0.0000 1.0000
vt 0.7500 0.0000 1.0000
vt 0.9722 0.0000 1.0000
vt 0.9167 0.0000 1.0000
vt 0.0833 0.0000 1.0000
vt 0.0278 0.0000 1.0000
vt -0.0278 0.0000 1.0000
vt 0.1944 0.0000 1.0000
vt 0.1389 0.0000 1.0000
vt 0.3056 0.0000 1.0000
vt 0.2500 0.0000 1.0000
vt 0.4167 0.0000 1.0000
vt 0.3611 0.0000 1.0000
vt 0.5278 0.0000 1.0000
vt 0.4722 0.0000 1.0000
vt 0.6389 0.0000 1.0000
vt 0.5833 0.0000 1.0000
vt 0.6944 0.0000 1.0000
vt 0.8056 0.5000 1.0000
vt 0.7500 0.5000 1.0000
vt 0.8611 0.5000 1.0000
vt 0.9167 0.5000 1.0000
vt 0.9722 0.5000 1.0000
vt 0.0278 0.5000 1.0000
vt -0.0278 0.5000 1.0000
vt 0.0833 0.5000 1.0000
vt 0.1389 0.5000 1.0000
vt 0.1944 0.5000 1.0000
vt 0.2500 0.5000 1.0000
vt 0.3056 0.5000 1.0000
vt 0.3611 0.5000 1.0000
vt 0.4167 0.5000 1.0000
vt 0.4722 0.5000 1.0000
vt 0.5278 0.5000 1.0000
vt 0.5833 0.5000 1.0000
vt 0.6389 0.5000 1.0000
vt 0.6944 0.5000 1.0000
vt 0.8056 1.0000 1.0000
vt 0.7500 1.0000 1.0000
vt 0.8611 1.0000 1.0000
vt 0.9167 1.0000 1.0000
vt 0.9722 1.0000 1.0000
vt 0.0278 1.0000 1.0000
vt -0.0278 1.0000 1.0000
vt 0.0833 1.0000 1.0000
vt 0.1389 1.0000 1.0000
vt 0.1944 1.0000 1.0000
vt 0.2500 1.0000 1.0000
vt 0.3056 1.0000 1.0000
vt 0.3611 1.0000 1.0000
vt 0.4167 1.0000 1.0000
vt 0.4722 1.0000 1.0000
vt 0.5278 1.0000 1.0000
vt 0.5833 1.0000 1.0000
vt 0.6389 1.0000 1.0000
vt 0.6944 1.0000 1.0000
vt 0.5000 1.0000 0.0000
vt -0.0197 1.0000 0.8794
# 60 texture coords

g Cylinder002
usemtl 10___Default
s 1
f 161/155/141 162/156/141 163/157/141 164/158/141 
f 161/155/141 165/159/141 166/160/141 162/156/141 
f 161/155/141 167/161/141 168/162/141 165/163/141 
f 161/155/141 169/164/141 170/165/141 167/161/141 
f 161/155/141 171/166/141 172/167/141 169/164/141 
f 161/155/141 173/168/141 174/169/141 171/166/141 
f 161/155/141 175/170/141 176/171/141 173/168/141 
f 161/155/141 177/172/141 178/173/141 175/170/141 
f 161/155/141 164/158/141 179/174/141 177/172/141 
s 8
f 164/158/142 163/157/143 180/175/143 181/176/142 
f 163/157/143 162/156/144 182/177/144 180/175/143 
f 162/156/144 166/160/145 183/178/145 182/177/144 
f 166/160/145 165/159/146 184/179/146 183/178/145 
f 165/163/146 168/162/147 185/180/147 184/181/146 
f 168/162/147 167/161/148 186/182/148 185/180/147 
f 167/161/148 170/165/149 187/183/149 186/182/148 
f 170/165/149 169/164/150 188/184/150 187/183/149 
f 169/164/150 172/167/151 189/185/151 188/184/150 
f 172/167/151 171/166/152 190/186/152 189/185/151 
f 171/166/152 174/169/153 191/187/153 190/186/152 
f 174/169/153 173/168/154 192/188/154 191/187/153 
f 173/168/154 176/171/155 193/189/155 192/188/154 
f 176/171/155 175/170/156 194/190/156 193/189/155 
f 175/170/156 178/173/157 195/191/157 194/190/156 
f 178/173/157 177/172/158 196/192/158 195/191/157 
f 177/172/158 179/174/159 197/193/159 196/192/158 
f 179/174/159 164/158/142 181/176/142 197/193/159 
f 181/176/142 180/175/143 198/194/143 199/195/142 
f 180/175/143 182/177/144 200/196/144 198/194/143 
f 182/177/144 183/178/145 201/197/145 200/196/144 
f 183/178/145 184/179/146 202/198/146 201/197/145 
f 184/181/146 185/180/147 203/199/147 202/200/146 
f 185/180/147 186/182/148 204/201/148 203/199/147 
f 186/182/148 187/183/149 205/202/149 204/201/148 
f 187/183/149 188/184/150 206/203/150 205/202/149 
f 188/184/150 189/185/151 207/204/151 206/203/150 
f 189/185/151 190/186/152 208/205/152 207/204/151 
f 190/186/152 191/187/153 209/206/153 208/205/152 
f 191/187/153 192/188/154 210/207/154 209/206/153 
f 192/188/154 193/189/155 211/208/155 210/207/154 
f 193/189/155 194/190/156 212/209/156 211/208/155 
f 194/190/156 195/191/157 213/210/157 212/209/156 
f 195/191/157 196/192/158 214/211/158 213/210/157 
f 196/192/158 197/193/159 215/212/159 214/211/158 
f 197/193/159 181/176/142 199/195/142 215/212/159 
s 1
f 216/213/160 215/212/160 199/195/160 198/194/160 
f 216/213/160 198/194/160 200/196/160 201/197/160 
f 216/213/160 201/214/160 202/200/160 203/199/160 
f 216/213/160 203/199/160 204/201/160 205/202/160 
f 216/213/160 205/202/160 206/203/160 207/204/160 
f 216/213/160 207/204/160 208/205/160 209/206/160 
f 216/213/160 209/206/160 210/207/160 211/208/160 
f 216/213/160 211/208/160 212/209/160 213/210/160 
f 216/213/160 213/210/160 214/211/160 215/212/160 
# 54 polygons

