# This file uses centimeters as units for non-parametric coordinates.

v 9.101011 2.226797 -0.723530
v 9.101011 1.894227 -1.376236
v 9.101011 1.376236 -1.894227
v 9.101011 0.723530 -2.226797
v 9.101011 -0.000000 -2.341393
v 9.101011 -0.723530 -2.226797
v 9.101011 -1.376236 -1.894226
v 9.101011 -1.894226 -1.376236
v 9.101011 -2.226796 -0.723530
v 9.101011 -2.341392 0.000000
v 9.101011 -2.226796 0.723530
v 9.101011 -1.894226 1.376236
v 9.101011 -1.376236 1.894226
v 9.101011 -0.723530 2.226796
v 9.101011 -0.000000 2.341392
v 9.101011 0.723530 2.226796
v 9.101011 1.376235 1.894226
v 9.101011 1.894226 1.376236
v 9.101011 2.226796 0.723530
v 9.101011 2.341392 0.000000
v -9.101011 2.226797 -0.723530
v -9.101011 1.894227 -1.376236
v -9.101011 1.376236 -1.894227
v -9.101011 0.723530 -2.226797
v -9.101011 0.000000 -2.341393
v -9.101011 -0.723530 -2.226797
v -9.101011 -1.376236 -1.894226
v -9.101011 -1.894226 -1.376236
v -9.101011 -2.226796 -0.723530
v -9.101011 -2.341392 0.000000
v -9.101011 -2.226796 0.723530
v -9.101011 -1.894226 1.376236
v -9.101011 -1.376236 1.894226
v -9.101011 -0.723530 2.226796
v -9.101011 -0.000000 2.341392
v -9.101011 0.723530 2.226796
v -9.101011 1.376235 1.894226
v -9.101011 1.894226 1.376236
v -9.101011 2.226796 0.723530
v -9.101011 2.341392 0.000000
v 9.101011 2.183317 -0.709402
v 9.101011 1.857240 -1.349364
v 9.101011 1.349364 -1.857240
v 9.101011 0.709403 -2.183317
v 9.101011 0.000000 -2.295675
v 9.101011 -0.709402 -2.183316
v 9.101011 -1.349364 -1.857240
v 9.101011 -1.857240 -1.349363
v 9.101011 -2.183316 -0.709402
v 9.101011 -2.295674 0.000000
v 9.101011 -2.183316 0.709403
v 9.101011 -1.857240 1.349364
v 9.101011 -1.349363 1.857240
v 9.101011 -0.709402 2.183316
v 9.101011 0.000000 2.295674
v 9.101011 0.709402 2.183316
v 9.101011 1.349363 1.857240
v 9.101011 1.857240 1.349364
v 9.101011 2.183316 0.709402
v 9.101011 2.295674 0.000000
v -9.101011 2.183317 -0.709402
v -9.101011 1.857240 -1.349364
v -9.101011 1.349364 -1.857240
v -9.101011 0.709403 -2.183317
v -9.101011 0.000000 -2.295675
v -9.101011 -0.709402 -2.183316
v -9.101011 -1.349364 -1.857240
v -9.101011 -1.857240 -1.349363
v -9.101011 -2.183316 -0.709402
v -9.101011 -2.295674 0.000000
v -9.101011 -2.183316 0.709403
v -9.101011 -1.857240 1.349364
v -9.101011 -1.349363 1.857240
v -9.101011 -0.709402 2.183316
v -9.101011 0.000000 2.295674
v -9.101011 0.709402 2.183316
v -9.101011 1.349363 1.857240
v -9.101011 1.857240 1.349364
v -9.101011 2.183316 0.709402
v -9.101011 2.295674 0.000000
vt 0.648603 0.107966
vt 0.626409 0.064408
vt 0.591842 0.029841
vt 0.548284 0.007647
vt 0.500000 -0.000000
vt 0.451716 0.007647
vt 0.408159 0.029841
vt 0.373591 0.064409
vt 0.351397 0.107966
vt 0.343750 0.156250
vt 0.351397 0.204534
vt 0.373591 0.248091
vt 0.408159 0.282659
vt 0.451716 0.304853
vt 0.500000 0.312500
vt 0.548284 0.304853
vt 0.591841 0.282659
vt 0.626409 0.248091
vt 0.648603 0.204534
vt 0.656250 0.156250
vt 0.375000 0.312500
vt 0.387500 0.312500
vt 0.400000 0.312500
vt 0.412500 0.312500
vt 0.425000 0.312500
vt 0.437500 0.312500
vt 0.450000 0.312500
vt 0.462500 0.312500
vt 0.475000 0.312500
vt 0.487500 0.312500
vt 0.500000 0.312500
vt 0.512500 0.312500
vt 0.525000 0.312500
vt 0.537500 0.312500
vt 0.550000 0.312500
vt 0.562500 0.312500
vt 0.575000 0.312500
vt 0.587500 0.312500
vt 0.600000 0.312500
vt 0.612500 0.312500
vt 0.625000 0.312500
vt 0.375000 0.688440
vt 0.387500 0.688440
vt 0.400000 0.688440
vt 0.412500 0.688440
vt 0.425000 0.688440
vt 0.437500 0.688440
vt 0.450000 0.688440
vt 0.462500 0.688440
vt 0.475000 0.688440
vt 0.487500 0.688440
vt 0.500000 0.688440
vt 0.512500 0.688440
vt 0.525000 0.688440
vt 0.537500 0.688440
vt 0.550000 0.688440
vt 0.562500 0.688440
vt 0.575000 0.688440
vt 0.587500 0.688440
vt 0.600000 0.688440
vt 0.612500 0.688440
vt 0.625000 0.688440
vt 0.648603 0.795466
vt 0.626409 0.751908
vt 0.591842 0.717341
vt 0.548284 0.695147
vt 0.500000 0.687500
vt 0.451716 0.695147
vt 0.408159 0.717341
vt 0.373591 0.751909
vt 0.351397 0.795466
vt 0.343750 0.843750
vt 0.351397 0.892034
vt 0.373591 0.935591
vt 0.408159 0.970159
vt 0.451716 0.992353
vt 0.500000 1.000000
vt 0.548284 0.992353
vt 0.591841 0.970159
vt 0.626409 0.935591
vt 0.648603 0.892034
vt 0.656250 0.843750
vt 0.574301 0.128983
vt 0.563205 0.107204
vt 0.545921 0.089921
vt 0.524142 0.078824
vt 0.500000 0.075000
vt 0.475858 0.078824
vt 0.454079 0.089921
vt 0.436796 0.107204
vt 0.425699 0.128983
vt 0.421875 0.153125
vt 0.425699 0.177267
vt 0.436796 0.199046
vt 0.454079 0.216329
vt 0.475858 0.227426
vt 0.500000 0.231250
vt 0.524142 0.227426
vt 0.545921 0.216329
vt 0.563204 0.199046
vt 0.574301 0.177267
vt 0.578125 0.153125
vt 0.574301 0.864767
vt 0.563204 0.886546
vt 0.545921 0.903829
vt 0.524142 0.914926
vt 0.500000 0.918750
vt 0.475858 0.914926
vt 0.454079 0.903829
vt 0.436796 0.886546
vt 0.425699 0.864767
vt 0.421875 0.840625
vt 0.425699 0.816483
vt 0.436796 0.794704
vt 0.454079 0.777421
vt 0.475858 0.766324
vt 0.500000 0.762500
vt 0.524142 0.766324
vt 0.545921 0.777421
vt 0.563205 0.794704
vt 0.574301 0.816483
vt 0.578125 0.840625
vn 0.000000 0.951057 -0.309016
vn 0.000000 0.809017 -0.587785
vn 0.000000 0.809017 -0.587785
vn 0.000000 0.951057 -0.309016
vn 0.000000 0.587785 -0.809017
vn 0.000000 0.587785 -0.809017
vn 0.000000 0.309017 -0.951057
vn 0.000000 0.309017 -0.951057
vn -0.000000 -0.000000 -1.000000
vn -0.000000 -0.000000 -1.000000
vn -0.000000 -0.309017 -0.951056
vn -0.000000 -0.309017 -0.951056
vn -0.000000 -0.587785 -0.809017
vn -0.000000 -0.587785 -0.809017
vn -0.000000 -0.809017 -0.587785
vn -0.000000 -0.809017 -0.587785
vn -0.000000 -0.951057 -0.309017
vn -0.000000 -0.951057 -0.309017
vn -0.000000 -1.000000 0.000000
vn -0.000000 -1.000000 0.000000
vn -0.000000 -0.951056 0.309017
vn -0.000000 -0.951056 0.309017
vn -0.000000 -0.809017 0.587785
vn -0.000000 -0.809017 0.587785
vn -0.000000 -0.587785 0.809017
vn -0.000000 -0.587785 0.809017
vn -0.000000 -0.309017 0.951057
vn -0.000000 -0.309017 0.951057
vn 0.000000 0.000000 1.000000
vn 0.000000 0.000000 1.000000
vn 0.000000 0.309017 0.951056
vn 0.000000 0.309017 0.951056
vn 0.000000 0.587785 0.809017
vn 0.000000 0.587785 0.809017
vn 0.000000 0.809017 0.587785
vn 0.000000 0.809017 0.587785
vn 0.000000 0.951057 0.309017
vn 0.000000 0.951057 0.309017
vn 0.000000 1.000000 0.000001
vn 0.000000 1.000000 0.000001
vn 1.000000 -0.000000 0.000000
vn 1.000000 -0.000000 0.000000
vn 1.000000 -0.000000 0.000000
vn 1.000000 -0.000000 0.000000
vn 1.000000 -0.000000 0.000000
vn 1.000000 -0.000000 0.000000
vn 1.000000 -0.000000 0.000000
vn 1.000000 -0.000000 0.000000
vn 1.000000 -0.000000 0.000000
vn 1.000000 -0.000000 0.000000
vn 1.000000 -0.000000 0.000001
vn 1.000000 -0.000000 0.000001
vn 1.000000 -0.000000 0.000001
vn 1.000000 -0.000000 0.000001
vn 1.000000 -0.000000 0.000000
vn 1.000000 -0.000000 0.000000
vn 1.000000 -0.000000 0.000000
vn 1.000000 -0.000000 0.000000
vn 1.000000 -0.000000 0.000000
vn 1.000000 -0.000000 0.000000
vn 1.000000 -0.000000 0.000000
vn 1.000000 -0.000000 0.000000
vn 1.000000 -0.000000 0.000000
vn 1.000000 -0.000000 0.000000
vn 1.000000 -0.000000 0.000000
vn 1.000000 -0.000000 0.000000
vn 1.000000 -0.000000 0.000000
vn 1.000000 -0.000000 0.000000
vn 1.000000 -0.000000 0.000000
vn 1.000000 -0.000000 0.000000
vn 1.000000 -0.000000 0.000001
vn 1.000000 -0.000000 0.000001
vn 1.000000 -0.000000 0.000001
vn 1.000000 -0.000000 0.000001
vn 1.000000 -0.000000 0.000000
vn 1.000000 -0.000000 0.000000
vn 1.000000 -0.000000 0.000000
vn 1.000000 -0.000000 0.000000
vn 1.000000 -0.000000 0.000000
vn 1.000000 -0.000000 0.000000
vn -1.000000 0.000000 0.000000
vn -1.000000 0.000000 0.000000
vn -1.000000 0.000000 0.000000
vn -1.000000 0.000000 0.000000
vn -1.000000 0.000000 0.000000
vn -1.000000 0.000000 0.000000
vn -1.000000 0.000000 0.000000
vn -1.000000 0.000000 0.000000
vn -1.000000 0.000000 0.000000
vn -1.000000 0.000000 0.000000
vn -1.000000 0.000000 -0.000001
vn -1.000000 0.000000 -0.000001
vn -1.000000 0.000000 -0.000001
vn -1.000000 0.000000 -0.000001
vn -1.000000 0.000000 0.000000
vn -1.000000 0.000000 0.000000
vn -1.000000 0.000000 0.000000
vn -1.000000 0.000000 0.000000
vn -1.000000 0.000000 0.000000
vn -1.000000 0.000000 0.000000
vn -1.000000 0.000000 0.000000
vn -1.000000 0.000000 0.000000
vn -1.000000 0.000000 0.000000
vn -1.000000 0.000000 0.000000
vn -1.000000 0.000000 0.000000
vn -1.000000 0.000000 0.000000
vn -1.000000 0.000000 0.000000
vn -1.000000 0.000000 0.000000
vn -1.000000 0.000000 0.000000
vn -1.000000 0.000000 0.000000
vn -1.000000 0.000000 -0.000001
vn -1.000000 0.000000 -0.000001
vn -1.000000 0.000000 -0.000001
vn -1.000000 0.000000 -0.000001
vn -1.000000 0.000000 0.000000
vn -1.000000 0.000000 0.000000
vn -1.000000 0.000000 0.000000
vn -1.000000 0.000000 0.000000
vn -1.000000 0.000000 0.000000
vn -1.000000 0.000000 0.000000
vn -0.000000 -0.891007 -0.453990
vn -0.000000 -0.891007 -0.453990
vn -0.000000 -0.891007 -0.453990
vn -0.000000 -0.891007 -0.453990
vn -0.000000 -0.707107 -0.707107
vn -0.000000 -0.707107 -0.707107
vn -0.000000 -0.707107 -0.707107
vn -0.000000 -0.707107 -0.707107
vn -0.000000 -0.453991 -0.891006
vn -0.000000 -0.453991 -0.891006
vn -0.000000 -0.453991 -0.891006
vn -0.000000 -0.453991 -0.891006
vn -0.000000 -0.156434 -0.987688
vn -0.000000 -0.156434 -0.987688
vn -0.000000 -0.156434 -0.987688
vn -0.000000 -0.156434 -0.987688
vn 0.000000 0.156434 -0.987688
vn 0.000000 0.156434 -0.987688
vn 0.000000 0.156434 -0.987688
vn 0.000000 0.156434 -0.987688
vn 0.000000 0.453991 -0.891007
vn 0.000000 0.453991 -0.891007
vn 0.000000 0.453991 -0.891007
vn 0.000000 0.453991 -0.891007
vn 0.000000 0.707107 -0.707107
vn 0.000000 0.707107 -0.707107
vn 0.000000 0.707107 -0.707107
vn 0.000000 0.707107 -0.707107
vn 0.000000 0.891007 -0.453990
vn 0.000000 0.891007 -0.453990
vn 0.000000 0.891007 -0.453990
vn 0.000000 0.891007 -0.453990
vn 0.000000 0.987688 -0.156434
vn 0.000000 0.987688 -0.156434
vn 0.000000 0.987688 -0.156434
vn 0.000000 0.987688 -0.156434
vn 0.000000 0.987688 0.156434
vn 0.000000 0.987688 0.156434
vn 0.000000 0.987688 0.156434
vn 0.000000 0.987688 0.156434
vn 0.000000 0.891007 0.453990
vn 0.000000 0.891007 0.453990
vn 0.000000 0.891007 0.453990
vn 0.000000 0.891007 0.453990
vn 0.000000 0.707107 0.707107
vn 0.000000 0.707107 0.707107
vn 0.000000 0.707107 0.707107
vn 0.000000 0.707107 0.707107
vn 0.000000 0.453991 0.891006
vn 0.000000 0.453991 0.891006
vn 0.000000 0.453991 0.891006
vn 0.000000 0.453991 0.891006
vn 0.000000 0.156434 0.987688
vn 0.000000 0.156434 0.987688
vn 0.000000 0.156434 0.987688
vn 0.000000 0.156434 0.987688
vn -0.000000 -0.156434 0.987689
vn -0.000000 -0.156434 0.987689
vn -0.000000 -0.156434 0.987689
vn -0.000000 -0.156434 0.987689
vn -0.000000 -0.453990 0.891007
vn -0.000000 -0.453990 0.891007
vn -0.000000 -0.453990 0.891007
vn -0.000000 -0.453990 0.891007
vn -0.000000 -0.707107 0.707107
vn -0.000000 -0.707107 0.707107
vn -0.000000 -0.707107 0.707107
vn -0.000000 -0.707107 0.707107
vn -0.000000 -0.891006 0.453991
vn -0.000000 -0.891006 0.453991
vn -0.000000 -0.891006 0.453991
vn -0.000000 -0.891006 0.453991
vn -0.000000 -0.987689 0.156432
vn -0.000000 -0.987689 0.156432
vn -0.000000 -0.987689 0.156432
vn -0.000000 -0.987689 0.156432
vn -0.000000 -0.987688 -0.156434
vn -0.000000 -0.987688 -0.156434
vn -0.000000 -0.987688 -0.156434
vn -0.000000 -0.987688 -0.156434
f 1/21/1 2/22/2 22/43/3 21/42/4
f 2/22/2 3/23/5 23/44/6 22/43/3
f 3/23/5 4/24/7 24/45/8 23/44/6
f 4/24/7 5/25/9 25/46/10 24/45/8
f 5/25/9 6/26/11 26/47/12 25/46/10
f 6/26/11 7/27/13 27/48/14 26/47/12
f 7/27/13 8/28/15 28/49/16 27/48/14
f 8/28/15 9/29/17 29/50/18 28/49/16
f 9/29/17 10/30/19 30/51/20 29/50/18
f 10/30/19 11/31/21 31/52/22 30/51/20
f 11/31/21 12/32/23 32/53/24 31/52/22
f 12/32/23 13/33/25 33/54/26 32/53/24
f 13/33/25 14/34/27 34/55/28 33/54/26
f 14/34/27 15/35/29 35/56/30 34/55/28
f 15/35/29 16/36/31 36/57/32 35/56/30
f 16/36/31 17/37/33 37/58/34 36/57/32
f 17/37/33 18/38/35 38/59/36 37/58/34
f 18/38/35 19/39/37 39/60/38 38/59/36
f 19/39/37 20/40/39 40/61/40 39/60/38
f 20/40/39 1/41/1 21/62/4 40/61/40
f 20/20/41 19/19/42 59/101/43 60/102/44
f 19/19/42 18/18/45 58/100/46 59/101/43
f 18/18/45 17/17/47 57/99/48 58/100/46
f 17/17/47 16/16/49 56/98/50 57/99/48
f 16/16/49 15/15/51 55/97/52 56/98/50
f 15/15/51 14/14/53 54/96/54 55/97/52
f 14/14/53 13/13/55 53/95/56 54/96/54
f 13/13/55 12/12/57 52/94/58 53/95/56
f 12/12/57 11/11/59 51/93/60 52/94/58
f 11/11/59 10/10/61 50/92/62 51/93/60
f 10/10/61 9/9/63 49/91/64 50/92/62
f 9/9/63 8/8/65 48/90/66 49/91/64
f 8/8/65 7/7/67 47/89/68 48/90/66
f 7/7/67 6/6/69 46/88/70 47/89/68
f 6/6/69 5/5/71 45/87/72 46/88/70
f 5/5/71 4/4/73 44/86/74 45/87/72
f 4/4/73 3/3/75 43/85/76 44/86/74
f 3/3/75 2/2/77 42/84/78 43/85/76
f 2/2/77 1/1/79 41/83/80 42/84/78
f 1/1/79 20/20/41 60/102/44 41/83/80
f 40/82/81 21/81/82 61/103/83 80/122/84
f 21/81/82 22/80/85 62/104/86 61/103/83
f 22/80/85 23/79/87 63/105/88 62/104/86
f 23/79/87 24/78/89 64/106/90 63/105/88
f 24/78/89 25/77/91 65/107/92 64/106/90
f 25/77/91 26/76/93 66/108/94 65/107/92
f 26/76/93 27/75/95 67/109/96 66/108/94
f 27/75/95 28/74/97 68/110/98 67/109/96
f 28/74/97 29/73/99 69/111/100 68/110/98
f 29/73/99 30/72/101 70/112/102 69/111/100
f 30/72/101 31/71/103 71/113/104 70/112/102
f 31/71/103 32/70/105 72/114/106 71/113/104
f 32/70/105 33/69/107 73/115/108 72/114/106
f 33/69/107 34/68/109 74/116/110 73/115/108
f 34/68/109 35/67/111 75/117/112 74/116/110
f 35/67/111 36/66/113 76/118/114 75/117/112
f 36/66/113 37/65/115 77/119/116 76/118/114
f 37/65/115 38/64/117 78/120/118 77/119/116
f 38/64/117 39/63/119 79/121/120 78/120/118
f 39/63/119 40/82/81 80/122/84 79/121/120
f 59/101/121 58/100/122 78/120/123 79/121/124
f 58/100/125 57/99/126 77/119/127 78/120/128
f 57/99/129 56/98/130 76/118/131 77/119/132
f 56/98/133 55/97/134 75/117/135 76/118/136
f 55/97/137 54/96/138 74/116/139 75/117/140
f 54/96/141 53/95/142 73/115/143 74/116/144
f 53/95/145 52/94/146 72/114/147 73/115/148
f 52/94/149 51/93/150 71/113/151 72/114/152
f 51/93/153 50/92/154 70/112/155 71/113/156
f 50/92/157 49/91/158 69/111/159 70/112/160
f 49/91/161 48/90/162 68/110/163 69/111/164
f 48/90/165 47/89/166 67/109/167 68/110/168
f 47/89/169 46/88/170 66/108/171 67/109/172
f 46/88/173 45/87/174 65/107/175 66/108/176
f 45/87/177 44/86/178 64/106/179 65/107/180
f 44/86/181 43/85/182 63/105/183 64/106/184
f 43/85/185 42/84/186 62/104/187 63/105/188
f 42/84/189 41/83/190 61/103/191 62/104/192
f 41/83/193 60/102/194 80/122/195 61/103/196
f 60/102/197 59/101/198 79/121/199 80/122/200
