# 3ds Max Wavefront OBJ Exporter v0.97b - (c)2007 guruware
# File Created: 14.11.2017 14:52:02

mtllib Rock.mtl

#
# object Sphere001
#

v  7.0404 46.6120 -32.6086
v  7.0404 39.5652 -38.6202
v  4.6590 40.1758 -38.3577
v  2.3047 41.5473 -37.3443
v  0.2381 43.4709 -35.4262
v  -1.0775 45.6536 -32.6086
v  -1.1338 47.7632 -29.2227
v  0.7731 47.8082 -26.3412
v  3.6564 47.7489 -24.4389
v  7.0404 48.9066 -23.3653
v  10.3628 47.2833 -24.5877
v  12.5697 44.7912 -27.0793
v  13.4383 42.2055 -29.9585
v  13.3305 40.3700 -32.6086
v  12.5942 39.5644 -34.9090
v  11.3759 39.9112 -36.9440
v  9.3731 39.8084 -38.2403
v  7.0404 32.7657 -41.4429
v  3.3836 33.6293 -41.4368
v  -0.3134 34.6401 -39.9623
v  -4.1074 36.6354 -37.2261
v  -6.7569 38.7079 -32.6086
v  -4.6122 37.2896 -27.7819
v  -1.5578 36.7471 -24.0104
v  2.4139 36.6632 -21.4392
v  7.0404 38.7462 -18.7792
v  11.6216 36.5214 -21.5487
v  15.1831 35.9759 -24.4659
v  18.6729 37.2635 -27.7902
v  17.4973 34.7085 -32.6086
v  15.8222 33.5691 -36.2461
v  14.0513 34.0594 -39.6194
v  10.5311 33.1097 -41.0358
v  7.0404 27.3393 -42.9950
v  2.8536 27.6142 -42.7165
v  -1.0422 27.8572 -40.6912
v  -6.1484 29.2680 -38.0715
v  -7.9976 29.6462 -32.6086
v  -4.9846 28.6433 -27.6276
v  -2.5117 28.8878 -23.0565
v  1.9166 28.8285 -20.2387
v  7.0404 29.9857 -16.8861
v  11.8046 28.3624 -21.1069
v  15.2934 27.9766 -24.3556
v  19.5195 28.8871 -27.4395
v  22.3915 29.8015 -32.6086
v  19.7221 28.9958 -37.8615
v  16.2427 28.6424 -41.8108
v  11.2027 27.5825 -42.6574
v  7.0404 22.1882 -44.7536
v  2.3340 22.1882 -43.9709
v  -2.0617 22.1882 -41.7107
v  -7.5814 22.1882 -38.6651
v  -9.3151 22.1882 -32.6086
v  -5.8812 22.1882 -27.2562
v  -3.7640 22.1882 -21.8042
v  1.0365 22.1882 -18.1138
v  7.0404 22.1882 -15.9255
v  11.9572 22.1882 -20.7382
v  15.4812 22.1882 -24.1678
v  20.0559 22.1882 -27.2174
v  24.5447 22.1882 -32.6086
v  22.1495 22.1882 -38.8670
v  17.8050 22.1882 -43.3732
v  11.9079 22.1882 -44.3599
v  7.0404 15.2856 -46.5268
v  2.1741 15.8817 -44.3568
v  -1.4522 16.2318 -41.1012
v  -6.0375 15.1680 -38.0256
v  -6.4677 15.4890 -32.6086
v  -4.6233 15.9271 -27.7773
v  -1.9539 15.8799 -23.6142
v  1.7673 15.3545 -19.8782
v  7.0404 14.4310 -16.9671
v  12.3950 15.2489 -19.6814
v  16.3844 15.6347 -23.2646
v  20.7975 14.8034 -26.9102
v  19.7373 15.8913 -32.6086
v  17.8636 16.3783 -37.0917
v  15.5924 16.1901 -41.1606
v  12.3128 15.3554 -45.3372
v  7.0404 10.3120 -42.5277
v  3.6598 11.6112 -40.7701
v  0.8768 11.7517 -38.7722
v  -1.8150 10.7119 -36.2766
v  -1.6633 11.7673 -32.6086
v  -0.5226 12.3868 -29.4758
v  1.2125 12.3201 -26.7806
v  3.6489 11.5771 -24.4207
v  7.0404 10.2710 -22.6552
v  11.3832 8.6007 -22.1240
v  15.2084 8.3578 -24.4406
v  16.0500 10.5121 -28.8766
v  15.5073 12.0507 -32.6086
v  14.3314 12.7393 -35.6286
v  12.7779 12.4732 -38.3461
v  10.5228 11.2928 -41.0158
v  7.0404 6.9072 -37.8951
v  5.1390 7.8259 -37.1990
v  3.5513 7.9252 -36.0977
v  2.5485 8.1344 -34.4691
v  2.4748 8.9912 -32.6086
v  2.9624 9.4293 -30.9194
v  3.9077 9.3821 -29.4758
v  5.2754 8.8567 -28.3475
v  7.0404 7.9332 -27.6770
v  9.0840 6.7521 -27.6749
v  11.0527 5.7866 -28.5963
v  11.7958 7.3099 -30.6388
v  11.8112 8.3979 -32.6086
v  11.2924 8.8848 -34.3698
v  10.3408 8.6966 -35.9090
v  8.9371 7.8620 -37.1875
v  7.0404 5.9726 -32.6086
# 114 vertices

vn 0.2242 0.8734 -0.4323
vn 0.0674 0.5777 -0.8135
vn -0.0220 0.5968 -0.8021
vn -0.1376 0.6171 -0.7748
vn -0.2893 0.6813 -0.6724
vn -0.5122 0.7456 -0.4263
vn -0.5818 0.8133 0.0068
vn -0.4085 0.8144 0.4122
vn -0.3689 0.8053 0.4640
vn 0.0617 0.8785 0.4738
vn 0.5865 0.7381 0.3336
vn 0.7188 0.6952 0.0048
vn 0.6297 0.6796 -0.3763
vn 0.6477 0.6453 -0.4052
vn 0.6822 0.6376 -0.3578
vn 0.5458 0.6532 -0.5248
vn 0.2516 0.5992 -0.7600
vn 0.0610 0.3685 -0.9276
vn -0.1313 0.3566 -0.9250
vn -0.3439 0.3491 -0.8717
vn -0.6097 0.4123 -0.6769
vn -0.8909 0.4510 -0.0535
vn -0.8266 0.2826 0.4867
vn -0.6365 0.2725 0.7215
vn -0.5400 0.2551 0.8020
vn 0.0399 0.3381 0.9403
vn 0.5982 0.1935 0.7776
vn 0.6365 0.2122 0.7415
vn 0.8174 0.5213 0.2453
vn 0.6161 0.6566 -0.4351
vn 0.6521 0.6375 -0.4105
vn 0.5141 0.5634 -0.6467
vn 0.1742 0.4177 -0.8918
vn -0.0060 0.3410 -0.9401
vn -0.2364 0.2835 -0.9294
vn -0.4217 0.2285 -0.8775
vn -0.7250 0.2603 -0.6377
vn -0.9729 0.2129 0.0899
vn -0.8677 0.1458 0.4752
vn -0.7078 0.2429 0.6634
vn -0.5078 0.2584 0.8218
vn 0.0792 0.1926 0.9781
vn 0.6700 0.0831 0.7377
vn 0.6264 0.0508 0.7778
vn 0.7254 0.1190 0.6780
vn 0.8782 0.4770 -0.0338
vn 0.6524 0.5612 -0.5094
vn 0.4069 0.4871 -0.7728
vn 0.0917 0.3738 -0.9230
vn -0.0712 0.3056 -0.9495
vn -0.3297 0.1630 -0.9299
vn -0.4758 0.0527 -0.8780
vn -0.8003 -0.0284 -0.5989
vn -0.9891 -0.0966 0.1113
vn -0.8787 -0.0609 0.4734
vn -0.7967 -0.0611 0.6012
vn -0.4897 0.0481 0.8706
vn 0.1370 0.0680 0.9882
vn 0.6842 0.1374 0.7163
vn 0.6335 0.1277 0.7631
vn 0.7443 -0.0083 0.6678
vn 0.9725 -0.2020 0.1163
vn 0.8406 -0.1531 -0.5196
vn 0.5545 -0.0051 -0.8322
vn 0.1276 0.2808 -0.9512
vn -0.1267 -0.2525 -0.9593
vn -0.4973 -0.3065 -0.8116
vn -0.5217 -0.3923 -0.7576
vn -0.7206 -0.5371 -0.4385
vn -0.7662 -0.6314 0.1194
vn -0.7057 -0.5803 0.4064
vn -0.6510 -0.6159 0.4437
vn -0.5239 -0.5849 0.6192
vn -0.0427 -0.4881 0.8718
vn 0.5884 -0.1388 0.7966
vn 0.7118 -0.0999 0.6952
vn 0.8669 -0.3809 0.3217
vn 0.7441 -0.6446 -0.1754
vn 0.6150 -0.7271 -0.3052
vn 0.6357 -0.6673 -0.3880
vn 0.4336 -0.4002 -0.8074
vn -0.0877 -0.7921 -0.6041
vn -0.4338 -0.7237 -0.5367
vn -0.3983 -0.7340 -0.5500
vn -0.5021 -0.8380 -0.2137
vn -0.5281 -0.8151 0.2381
vn -0.4807 -0.8267 0.2924
vn -0.4806 -0.8288 0.2866
vn -0.4653 -0.8227 0.3266
vn -0.3802 -0.8289 0.4104
vn 0.0998 -0.7774 0.6211
vn 0.6740 -0.6601 0.3316
vn 0.6930 -0.7101 -0.1248
vn 0.5959 -0.7296 -0.3355
vn 0.5861 -0.7466 -0.3147
vn 0.6079 -0.7467 -0.2700
vn 0.5130 -0.7720 -0.3752
vn -0.0063 -0.9370 -0.3494
vn -0.3899 -0.8481 -0.3587
vn -0.4070 -0.8607 -0.3058
vn -0.4691 -0.8830 0.0148
vn -0.4731 -0.8295 0.2970
vn -0.4669 -0.8322 0.2989
vn -0.4799 -0.8323 0.2773
vn -0.4794 -0.8328 0.2767
vn -0.4389 -0.8465 0.3015
vn -0.3168 -0.8966 0.3095
vn 0.2006 -0.9797 0.0032
vn 0.4986 -0.8006 -0.3322
vn 0.4992 -0.7940 -0.3468
vn 0.5259 -0.7968 -0.2977
vn 0.5636 -0.7932 -0.2306
vn 0.5190 -0.8199 -0.2414
vn -0.0985 -0.9951 -0.0081
# 114 vertex normals

g Sphere001
usemtl wire_086086086
s 1
f 1//1 2//2 3//3 
f 1//1 3//3 4//4 
f 1//1 4//4 5//5 
f 1//1 5//5 6//6 
f 1//1 6//6 7//7 
f 1//1 7//7 8//8 
f 1//1 8//8 9//9 
f 1//1 9//9 10//10 
f 1//1 10//10 11//11 
f 1//1 11//11 12//12 
f 1//1 12//12 13//13 
f 1//1 13//13 14//14 
f 1//1 14//14 15//15 
f 1//1 15//15 16//16 
f 1//1 16//16 17//17 
f 1//1 17//17 2//2 
f 2//2 18//18 19//19 3//3 
f 3//3 19//19 20//20 4//4 
f 4//4 20//20 21//21 5//5 
f 5//5 21//21 22//22 6//6 
f 6//6 22//22 23//23 7//7 
f 7//7 23//23 24//24 8//8 
f 8//8 24//24 25//25 9//9 
f 9//9 25//25 26//26 10//10 
f 10//10 26//26 27//27 11//11 
f 11//11 27//27 28//28 12//12 
f 12//12 28//28 29//29 13//13 
f 13//13 29//29 30//30 14//14 
f 14//14 30//30 31//31 15//15 
f 15//15 31//31 32//32 16//16 
f 16//16 32//32 33//33 17//17 
f 17//17 33//33 18//18 2//2 
f 18//18 34//34 35//35 19//19 
f 19//19 35//35 36//36 20//20 
f 20//20 36//36 37//37 21//21 
f 21//21 37//37 38//38 22//22 
f 22//22 38//38 39//39 23//23 
f 23//23 39//39 40//40 24//24 
f 24//24 40//40 41//41 25//25 
f 25//25 41//41 42//42 26//26 
f 26//26 42//42 43//43 27//27 
f 27//27 43//43 44//44 28//28 
f 28//28 44//44 45//45 29//29 
f 29//29 45//45 46//46 30//30 
f 30//30 46//46 47//47 31//31 
f 31//31 47//47 48//48 32//32 
f 32//32 48//48 49//49 33//33 
f 33//33 49//49 34//34 18//18 
f 34//34 50//50 51//51 35//35 
f 35//35 51//51 52//52 36//36 
f 36//36 52//52 53//53 37//37 
f 37//37 53//53 54//54 38//38 
f 38//38 54//54 55//55 39//39 
f 39//39 55//55 56//56 40//40 
f 40//40 56//56 57//57 41//41 
f 41//41 57//57 58//58 42//42 
f 42//42 58//58 59//59 43//43 
f 43//43 59//59 60//60 44//44 
f 44//44 60//60 61//61 45//45 
f 45//45 61//61 62//62 46//46 
f 46//46 62//62 63//63 47//47 
f 47//47 63//63 64//64 48//48 
f 48//48 64//64 65//65 49//49 
f 49//49 65//65 50//50 34//34 
f 50//50 66//66 67//67 51//51 
f 51//51 67//67 68//68 52//52 
f 52//52 68//68 69//69 53//53 
f 53//53 69//69 70//70 54//54 
f 54//54 70//70 71//71 55//55 
f 55//55 71//71 72//72 56//56 
f 56//56 72//72 73//73 57//57 
f 57//57 73//73 74//74 58//58 
f 58//58 74//74 75//75 59//59 
f 59//59 75//75 76//76 60//60 
f 60//60 76//76 77//77 61//61 
f 61//61 77//77 78//78 62//62 
f 62//62 78//78 79//79 63//63 
f 63//63 79//79 80//80 64//64 
f 64//64 80//80 81//81 65//65 
f 65//65 81//81 66//66 50//50 
f 66//66 82//82 83//83 67//67 
f 67//67 83//83 84//84 68//68 
f 68//68 84//84 85//85 69//69 
f 69//69 85//85 86//86 70//70 
f 70//70 86//86 87//87 71//71 
f 71//71 87//87 88//88 72//72 
f 72//72 88//88 89//89 73//73 
f 73//73 89//89 90//90 74//74 
f 74//74 90//90 91//91 75//75 
f 75//75 91//91 92//92 76//76 
f 76//76 92//92 93//93 77//77 
f 77//77 93//93 94//94 78//78 
f 78//78 94//94 95//95 79//79 
f 79//79 95//95 96//96 80//80 
f 80//80 96//96 97//97 81//81 
f 81//81 97//97 82//82 66//66 
f 82//82 98//98 99//99 83//83 
f 83//83 99//99 100//100 84//84 
f 84//84 100//100 101//101 85//85 
f 85//85 101//101 102//102 86//86 
f 86//86 102//102 103//103 87//87 
f 87//87 103//103 104//104 88//88 
f 88//88 104//104 105//105 89//89 
f 89//89 105//105 106//106 90//90 
f 90//90 106//106 107//107 91//91 
f 91//91 107//107 108//108 92//92 
f 92//92 108//108 109//109 93//93 
f 93//93 109//109 110//110 94//94 
f 94//94 110//110 111//111 95//95 
f 95//95 111//111 112//112 96//96 
f 96//96 112//112 113//113 97//97 
f 97//97 113//113 98//98 82//82 
f 114//114 99//99 98//98 
f 114//114 100//100 99//99 
f 114//114 101//101 100//100 
f 114//114 102//102 101//101 
f 114//114 103//103 102//102 
f 114//114 104//104 103//103 
f 114//114 105//105 104//104 
f 114//114 106//106 105//105 
f 114//114 107//107 106//106 
f 114//114 108//108 107//107 
f 114//114 109//109 108//108 
f 114//114 110//110 109//109 
f 114//114 111//111 110//110 
f 114//114 112//112 111//111 
f 114//114 113//113 112//112 
f 114//114 98//98 113//113 
# 96 polygons - 32 triangles

#
# object Sphere002
#

v  -2.0287 16.8757 34.4379
v  7.0404 6.9714 25.3688
v  7.0404 12.0700 35.4870
v  19.8595 29.6975 12.5497
v  20.1144 22.1882 12.2948
v  14.1222 22.1882 8.2718
v  19.6093 27.8234 30.5750
v  12.0959 27.6602 37.5738
v  23.8173 22.1882 32.3180
v  13.3962 29.0677 10.0245
v  2.5059 27.0963 14.4216
v  -1.9449 31.9139 21.6470
v  -3.2312 32.4598 25.3688
v  -4.8655 16.8503 20.4373
v  -4.6147 16.9628 30.1965
v  -2.3082 32.3071 29.2412
v  10.3372 33.4442 28.6656
v  15.5161 10.2018 33.8445
v  23.2167 14.9357 32.0693
v  18.7888 9.4718 30.2352
v  12.8844 13.9235 19.5248
v  22.7516 22.1882 18.8610
v  7.0404 34.2214 25.3688
v  2.4511 27.1557 36.4484
v  1.9819 22.1882 37.5812
v  19.8642 16.4388 20.0570
v  -2.5952 11.7588 21.3777
v  7.0404 12.4117 15.5923
v  2.9185 8.1154 21.2470
v  -0.9872 10.8354 17.3412
v  1.8804 22.1882 12.9116
v  11.3915 7.3326 29.7199
v  12.2012 34.6476 25.3688
v  -3.4189 22.1882 35.8282
# 34 vertices

vn -0.5503 -0.5316 0.6439
vn -0.0560 -0.9958 -0.0726
vn -0.1634 -0.5610 0.8115
vn 0.6372 0.5990 -0.4850
vn 0.7150 -0.3215 -0.6208
vn 0.1318 -0.2354 -0.9629
vn 0.6567 0.6894 0.3058
vn 0.2135 0.4349 0.8748
vn 0.8554 0.2239 0.4671
vn -0.0430 0.6099 -0.7913
vn -0.5742 0.4192 -0.7033
vn -0.7852 0.4264 -0.4491
vn -0.7368 0.6670 -0.1105
vn -0.9418 -0.0948 -0.3226
vn -0.8995 -0.3658 0.2391
vn -0.5579 0.7342 0.3869
vn 0.1151 0.8856 0.4500
vn 0.2330 -0.6313 0.7397
vn 0.8222 -0.4146 0.3900
vn 0.5847 -0.8108 -0.0272
vn 0.4009 -0.8577 -0.3219
vn 0.9796 -0.0376 -0.1975
vn -0.0956 0.9949 -0.0306
vn -0.2497 0.5145 0.8203
vn -0.1653 -0.0492 0.9850
vn 0.5926 -0.7286 -0.3435
vn -0.7512 -0.6589 0.0399
vn 0.1372 -0.7139 -0.6867
vn -0.1734 -0.9681 -0.1810
vn -0.5071 -0.6230 -0.5956
vn -0.5610 0.0261 -0.8274
vn 0.4593 -0.8714 -0.1726
vn 0.2342 0.9693 0.0751
vn -0.7316 0.0501 0.6799
# 34 vertex normals

g Sphere002
usemtl wire_086086086
s 1
f 115//115 116//116 117//117 
f 118//118 119//119 120//120 
f 121//121 122//122 123//123 
f 124//124 125//125 126//126 
f 127//127 128//128 129//129 
f 130//130 122//122 131//131 
f 122//122 132//132 133//133 
f 132//132 116//116 134//134 
f 134//134 116//116 135//135 
f 125//125 128//128 127//127 
f 121//121 136//136 118//118 
f 137//137 124//124 126//126 
f 130//130 138//138 122//122 
f 138//138 139//139 122//122 
f 133//133 135//135 140//140 
f 121//121 123//123 136//136 
f 141//141 116//116 115//115 
f 142//142 143//143 144//144 
f 124//124 120//120 145//145 
f 145//145 142//142 144//144 
f 139//139 132//132 122//122 
f 117//117 116//116 146//146 
f 131//131 122//122 121//121 
f 147//147 121//121 118//118 
f 148//148 115//115 139//139 
f 127//127 129//129 148//148 
f 137//137 127//127 130//130 
f 130//130 127//127 148//148 
f 133//133 134//134 135//135 
f 132//132 134//134 133//133 
f 128//128 141//141 129//129 
f 145//145 144//144 128//128 
f 115//115 117//117 139//139 
f 139//139 117//117 132//132 
f 118//118 120//120 124//124 
f 147//147 118//118 124//124 
f 120//120 142//142 145//145 
f 119//119 142//142 120//120 
f 118//118 136//136 119//119 
f 136//136 133//133 140//140 
f 123//123 133//133 136//136 
f 122//122 133//133 123//123 
f 116//116 143//143 135//135 
f 141//141 143//143 116//116 
f 131//131 121//121 147//147 
f 137//137 130//130 131//131 
f 137//137 126//126 127//127 
f 126//126 125//125 127//127 
f 117//117 146//146 132//132 
f 132//132 146//146 116//116 
f 125//125 145//145 128//128 
f 124//124 145//145 125//125 
f 144//144 143//143 141//141 
f 144//144 141//141 128//128 
f 129//129 115//115 148//148 
f 129//129 141//141 115//115 
f 119//119 140//140 142//142 
f 136//136 140//140 119//119 
f 137//137 131//131 147//147 
f 147//147 124//124 137//137 
f 142//142 135//135 143//143 
f 140//140 135//135 142//142 
f 148//148 139//139 138//138 
f 130//130 148//148 138//138 
# 0 polygons - 64 triangles

